<svg width="21" height="21" viewBox="0 0 21 21" fill="none" xmlns="http://www.w3.org/2000/svg">
<path d="M15.3491 11.3179V9.34912H11.3179V5.31787H9.34912V9.34912H5.31787V11.3179H9.34912V15.3491H11.3179V11.3179H15.3491ZM3.25537 3.30225C5.22412 1.3335 7.5835 0.349121 10.3335 0.349121C13.0835 0.349121 15.4272 1.3335 17.3647 3.30225C19.3335 5.23975 20.3179 7.5835 20.3179 10.3335C20.3179 13.0835 19.3335 15.4429 17.3647 17.4116C15.4272 19.3491 13.0835 20.3179 10.3335 20.3179C7.5835 20.3179 5.22412 19.3491 3.25537 17.4116C1.31787 15.4429 0.349121 13.0835 0.349121 10.3335C0.349121 7.5835 1.31787 5.23975 3.25537 3.30225Z" fill="black"/>
</svg>
