<svg width="155" height="155" viewBox="0 0 155 155" fill="none" xmlns="http://www.w3.org/2000/svg">
<path d="M77.6348 14.5374V46.7528M77.6348 108.606V140.822M103.447 135.856L90.7319 106.959M122.283 122.328L103.447 103.492M135.971 101.843L116.293 93.6925M135.812 52.6313L116.293 61.2195M122.283 33.0313L103.447 51.8673M101.798 19.3438L89.7165 48.5117M65.3016 49.1642L52.5865 20.2668M52.5865 52.6313L32.9865 33.0313M38.9763 61.6667L19.299 53.5161M30.4092 77.6796H14.4926M40.2649 94.6728L20.222 103.492M52.5865 102.728L32.9865 122.328M65.553 106.847L53.4713 136.015M140.777 77.6796H124.86" stroke="#2C3135" stroke-width="1.35091"/>
<path d="M77.634 77.6798C77.634 77.6798 66.088 87.9887 54.0609 87.9887C47.1528 87.9887 41.5527 83.3733 41.5527 77.6798C41.5527 71.9863 47.1528 67.3708 54.0609 67.3708C61.5774 67.3708 73.2054 74.666 77.634 77.6798C77.634 77.6798 90.6233 67.3708 101.207 67.3708C108.115 67.3708 113.715 71.9863 113.715 77.6798C113.715 83.3733 108.115 87.9887 101.207 87.9887C93.5777 87.9887 82.2569 80.867 77.634 77.6798Z" fill="#BBFF34"/>
</svg>
