<svg width="156" height="155" viewBox="0 0 156 155" fill="none" xmlns="http://www.w3.org/2000/svg">
<path d="M62.1073 85.4118H16.3745V36.4443H89.8257V66.7828M140.082 118.916H67.9192V69.9484H140.082V118.916Z" stroke="#2C3135" stroke-width="1.35091"/>
<path d="M62.7648 52.2332C62.7648 57.215 58.7263 61.2535 53.7445 61.2535C48.7627 61.2535 44.7242 57.215 44.7242 52.2332C44.7242 47.2514 48.7627 43.2129 53.7445 43.2129C58.7263 43.2129 62.7648 47.2514 62.7648 52.2332Z" fill="#BBFF34"/>
<path d="M113.021 85.7373C113.021 90.7191 108.982 94.7576 104.001 94.7576C99.0187 94.7576 94.9802 90.7191 94.9802 85.7373C94.9802 80.7555 99.0187 76.7169 104.001 76.7169C108.982 76.7169 113.021 80.7555 113.021 85.7373Z" fill="#BBFF34"/>
<path d="M62.7648 52.2332C62.7648 57.215 58.7263 61.2535 53.7445 61.2535C48.7627 61.2535 44.7242 57.215 44.7242 52.2332C44.7242 47.2514 48.7627 43.2129 53.7445 43.2129C58.7263 43.2129 62.7648 47.2514 62.7648 52.2332Z" fill="#BBFF34"/>
<path d="M39.2865 65.8557V78.2463H62.2975V65.8557H39.2865Z" fill="#BBFF34"/>
<path d="M89.8258 99.9121V111.51H118.175V99.9121H89.8258Z" fill="#BBFF34"/>
</svg>
