<svg width="155" height="156" viewBox="0 0 155 156" fill="none" xmlns="http://www.w3.org/2000/svg">
<path d="M139.489 44.5745H91.8099M63.4603 44.5745H15.7815M139.489 78.0785H66.0376M37.688 78.0785H15.7815M139.489 111.583H117.582M89.2327 111.583H15.7815" stroke="#2C3135" stroke-width="1.35091"/>
<path d="M86.6555 44.5745C86.6555 49.5563 82.617 53.5948 77.6352 53.5948C72.6534 53.5948 68.6149 49.5563 68.6149 44.5745C68.6149 39.5927 72.6534 35.5542 77.6352 35.5542C82.617 35.5542 86.6555 39.5927 86.6555 44.5745Z" fill="#BBFF34"/>
<path d="M60.8832 78.0786C60.8832 83.0604 56.8446 87.0989 51.8629 87.0989C46.8811 87.0989 42.8425 83.0604 42.8425 78.0786C42.8425 73.0968 46.8811 69.0583 51.8629 69.0583C56.8446 69.0583 60.8832 73.0968 60.8832 78.0786Z" fill="#BBFF34"/>
<path d="M112.428 111.583C112.428 116.564 108.389 120.603 103.408 120.603C98.4257 120.603 94.3872 116.564 94.3872 111.583C94.3872 106.601 98.4257 102.562 103.408 102.562C108.389 102.562 112.428 106.601 112.428 111.583Z" fill="#BBFF34"/>
</svg>
