<svg width="21" height="21" viewBox="0 0 21 21" fill="none" xmlns="http://www.w3.org/2000/svg">
<g clip-path="url(#clip0_1088_2115)">
<path d="M14.1863 13.946C15.5995 13.946 16.7449 15.0914 16.7449 16.5046C16.7449 17.9178 15.5995 19.0632 14.1863 19.0632C12.7731 19.0632 11.6277 17.9178 11.6277 16.5046C11.6277 15.0914 12.7731 13.946 14.1863 13.946ZM5.65759 10.5345C7.54244 10.5345 9.06908 12.0611 9.06908 13.946C9.06908 15.8308 7.54244 17.3574 5.65759 17.3574C3.77274 17.3574 2.24609 15.8308 2.24609 13.946C2.24609 12.0611 3.77274 10.5345 5.65759 10.5345ZM12.907 2.00572C15.498 2.00572 17.5978 4.1055 17.5978 6.69653C17.5978 9.28756 15.498 11.3873 12.907 11.3873C10.316 11.3873 8.21621 9.28756 8.21621 6.69653C8.21621 4.1055 10.316 2.00572 12.907 2.00572Z" fill="white"/>
</g>
<defs>
<clipPath id="clip0_1088_2115">
<rect width="20.469" height="20.469" fill="white" transform="translate(0.541016 0.299975)"/>
</clipPath>
</defs>
</svg>
