<svg width="22" height="22" viewBox="0 0 22 22" fill="none" xmlns="http://www.w3.org/2000/svg">
<path d="M17.7779 19.5556H3.55566V17.7778C3.55566 16.599 4.02392 15.4686 4.85741 14.6351C5.69091 13.8016 6.82137 13.3333 8.00011 13.3333H13.3334C14.5122 13.3333 15.6426 13.8016 16.4761 14.6351C17.3096 15.4686 17.7779 16.599 17.7779 17.7778V19.5556ZM10.6668 11.5556C9.96639 11.5556 9.27287 11.4176 8.6258 11.1496C7.97873 10.8816 7.39078 10.4887 6.89554 9.99345C6.40029 9.49821 6.00744 8.91027 5.73942 8.2632C5.47139 7.61613 5.33344 6.9226 5.33344 6.22222C5.33344 5.52184 5.47139 4.82831 5.73942 4.18124C6.00744 3.53417 6.40029 2.94623 6.89554 2.45098C7.39078 1.95574 7.97873 1.56289 8.6258 1.29486C9.27287 1.02684 9.96639 0.888885 10.6668 0.888885C12.0813 0.888886 13.4378 1.45079 14.438 2.45098C15.4382 3.45118 16.0001 4.80773 16.0001 6.22222C16.0001 7.63671 15.4382 8.99326 14.438 9.99345C13.4378 10.9936 12.0813 11.5556 10.6668 11.5556V11.5556Z" fill="white"/>
</svg>
