<svg width="21" height="22" viewBox="0 0 21 22" fill="none" xmlns="http://www.w3.org/2000/svg">
<path d="M18.4515 7.73663C18.9039 7.73663 19.3378 7.91634 19.6577 8.23623C19.9775 8.55612 20.1573 8.98998 20.1573 9.44237V12.8539C20.1573 13.3063 19.9775 13.7401 19.6577 14.06C19.3378 14.3799 18.9039 14.5596 18.4515 14.5596H17.5458C17.3378 16.2085 16.5353 17.7248 15.2888 18.824C14.0424 19.9232 12.4376 20.5297 10.7757 20.5297V18.824C12.1328 18.824 13.4344 18.2848 14.3941 17.3252C15.3538 16.3655 15.8929 15.0639 15.8929 13.7067V8.5895C15.8929 7.23232 15.3538 5.93073 14.3941 4.97106C13.4344 4.0114 12.1328 3.47226 10.7757 3.47226C9.41848 3.47226 8.11689 4.0114 7.15722 4.97106C6.19755 5.93073 5.65841 7.23232 5.65841 8.5895V14.5596H3.09979C2.6474 14.5596 2.21353 14.3799 1.89364 14.06C1.57376 13.7401 1.39404 13.3063 1.39404 12.8539V9.44237C1.39404 8.98998 1.57376 8.55612 1.89364 8.23623C2.21353 7.91634 2.6474 7.73663 3.09979 7.73663H4.00554C4.21367 6.08793 5.01627 4.57185 6.26273 3.47283C7.5092 2.37382 9.11387 1.76743 10.7757 1.76743C12.4374 1.76743 14.0421 2.37382 15.2886 3.47283C16.535 4.57185 17.3376 6.08793 17.5458 7.73663H18.4515ZM7.15947 14.3762L8.06351 12.9298C8.87637 13.439 9.81648 13.7083 10.7757 13.7067C11.7348 13.7083 12.6749 13.439 13.4878 12.9298L14.3918 14.3762C13.3081 15.0553 12.0546 15.4145 10.7757 15.4125C9.49673 15.4145 8.24325 15.0553 7.15947 14.3762Z" fill="black"/>
</svg>
