<svg width="16" height="17" viewBox="0 0 16 17" fill="none" xmlns="http://www.w3.org/2000/svg">
<path d="M10.6001 11.8499H15.7174V14.4085C15.7174 14.8616 15.5441 15.2614 15.1976 15.6079C14.8512 15.9544 14.4514 16.1276 13.9983 16.1276H2.08472C1.63163 16.1276 1.23184 15.9544 0.885362 15.6079C0.538882 15.2614 0.365642 14.8616 0.365642 14.4085V11.8499H5.48288C5.48288 12.5429 5.73608 13.1425 6.24247 13.6489C6.74887 14.1553 7.34854 14.4085 8.0415 14.4085C8.73446 14.4085 9.33414 14.1553 9.84053 13.6489C10.3469 13.1425 10.6001 12.5429 10.6001 11.8499ZM13.9983 5.89311V2.49495H2.08472V5.89311H5.48288C5.48288 6.58607 5.73608 7.18575 6.24247 7.69214C6.74887 8.19854 7.34854 8.45174 8.0415 8.45174C8.73446 8.45174 9.33414 8.19854 9.84053 7.69214C10.3469 7.18575 10.6001 6.58607 10.6001 5.89311H13.9983ZM13.9983 0.775873C14.4514 0.775873 14.8512 0.949113 15.1976 1.29559C15.5441 1.64207 15.7174 2.04186 15.7174 2.49495V8.45174C15.7174 8.90482 15.5441 9.30461 15.1976 9.65109C14.8512 9.99757 14.4514 10.1708 13.9983 10.1708H2.08472C1.63163 10.1708 1.23184 9.99757 0.885362 9.65109C0.538882 9.30461 0.365642 8.90482 0.365642 8.45174V2.49495C0.365642 2.04186 0.538882 1.64207 0.885362 1.29559C1.23184 0.949113 1.63163 0.775873 2.08472 0.775873H13.9983Z" fill="black"/>
</svg>
