<svg width="18" height="18" viewBox="0 0 18 18" fill="none" xmlns="http://www.w3.org/2000/svg">
<path d="M4.20411 13.6753C5.56338 15.0079 7.17584 15.6742 9.0415 15.6742C10.9072 15.6742 12.5063 15.0079 13.8389 13.6753C15.1982 12.316 15.8778 10.7036 15.8778 8.83792C15.8778 6.97226 15.1982 5.37312 13.8389 4.04051C12.5063 2.68124 10.9072 2.00161 9.0415 2.00161C7.17584 2.00161 5.56338 2.68124 4.20411 4.04051C2.8715 5.37312 2.20519 6.97226 2.20519 8.83792C2.20519 10.7036 2.8715 12.316 4.20411 13.6753ZM3.00476 2.84115C4.68385 1.16206 6.6961 0.322511 9.0415 0.322511C11.3869 0.322511 13.3858 1.16206 15.0383 2.84115C16.7174 4.4936 17.5569 6.49252 17.5569 8.83792C17.5569 11.1833 16.7174 13.1956 15.0383 14.8747C13.3858 16.5271 11.3869 17.3533 9.0415 17.3533C6.6961 17.3533 4.68385 16.5271 3.00476 14.8747C1.35232 13.1956 0.526094 11.1833 0.526094 8.83792C0.526094 6.49252 1.35232 4.4936 3.00476 2.84115ZM10.9605 4.16044C11.6534 4.45362 12.2131 4.81342 12.6396 5.23986C13.066 5.6663 13.4258 6.22599 13.719 6.91895C14.0122 7.61191 14.1587 8.25157 14.1587 8.83792C14.1587 9.42427 14.0122 10.0639 13.719 10.7569C13.4525 11.4498 13.106 12.0095 12.6795 12.436C11.6934 13.4488 10.4941 13.9552 9.08148 13.9552C7.66891 13.9552 6.45623 13.4488 5.44344 12.436L9.0415 8.83792V3.72068C9.62785 3.72068 10.2675 3.86727 10.9605 4.16044Z" fill="white"/>
</svg>
