<svg width="16" height="17" viewBox="0 0 16 17" fill="none" xmlns="http://www.w3.org/2000/svg">
<path d="M10.5999 11.8499H15.7171V14.4085C15.7171 14.8616 15.5439 15.2614 15.1974 15.6079C14.8509 15.9544 14.4511 16.1276 13.998 16.1276H2.08447C1.63138 16.1276 1.2316 15.9544 0.885118 15.6079C0.538638 15.2614 0.365398 14.8616 0.365398 14.4085V11.8499H5.48264C5.48264 12.5429 5.73584 13.1425 6.24223 13.6489C6.74862 14.1553 7.3483 14.4085 8.04126 14.4085C8.73422 14.4085 9.3339 14.1553 9.84029 13.6489C10.3467 13.1425 10.5999 12.5429 10.5999 11.8499ZM13.998 5.89311V2.49495H2.08447V5.89311H5.48264C5.48264 6.58607 5.73584 7.18575 6.24223 7.69214C6.74862 8.19854 7.3483 8.45174 8.04126 8.45174C8.73422 8.45174 9.3339 8.19854 9.84029 7.69214C10.3467 7.18575 10.5999 6.58607 10.5999 5.89311H13.998ZM13.998 0.775873C14.4511 0.775873 14.8509 0.949113 15.1974 1.29559C15.5439 1.64207 15.7171 2.04186 15.7171 2.49495V8.45174C15.7171 8.90482 15.5439 9.30461 15.1974 9.65109C14.8509 9.99757 14.4511 10.1708 13.998 10.1708H2.08447C1.63138 10.1708 1.2316 9.99757 0.885118 9.65109C0.538638 9.30461 0.365398 8.90482 0.365398 8.45174V2.49495C0.365398 2.04186 0.538638 1.64207 0.885118 1.29559C1.2316 0.949113 1.63138 0.775873 2.08447 0.775873H13.998Z" fill="white"/>
</svg>
