<svg width="22" height="22" viewBox="0 0 22 22" fill="none" xmlns="http://www.w3.org/2000/svg">
<path d="M17.7779 19.5555H3.55566V17.7777C3.55566 16.599 4.02392 15.4685 4.85741 14.635C5.69091 13.8016 6.82137 13.3333 8.00011 13.3333H13.3334C14.5122 13.3333 15.6426 13.8016 16.4761 14.635C17.3096 15.4685 17.7779 16.599 17.7779 17.7777V19.5555ZM10.6668 11.5555C9.96639 11.5555 9.27287 11.4176 8.6258 11.1495C7.97873 10.8815 7.39078 10.4887 6.89554 9.99342C6.40029 9.49818 6.00744 8.91024 5.73942 8.26317C5.47139 7.6161 5.33344 6.92257 5.33344 6.22219C5.33344 5.5218 5.47139 4.82828 5.73942 4.18121C6.00744 3.53414 6.40029 2.9462 6.89554 2.45095C7.39078 1.95571 7.97873 1.56286 8.6258 1.29483C9.27287 1.02681 9.96639 0.888855 10.6668 0.888855C12.0813 0.888855 13.4378 1.45076 14.438 2.45095C15.4382 3.45115 16.0001 4.8077 16.0001 6.22219C16.0001 7.63668 15.4382 8.99323 14.438 9.99342C13.4378 10.9936 12.0813 11.5555 10.6668 11.5555V11.5555Z" fill="black"/>
</svg>
