<svg width="18" height="18" viewBox="0 0 18 18" fill="none" xmlns="http://www.w3.org/2000/svg">
<path d="M4.20362 13.6753C5.56289 15.0079 7.17535 15.6742 9.04102 15.6742C10.9067 15.6742 12.5058 15.0079 13.8384 13.6753C15.1977 12.316 15.8773 10.7036 15.8773 8.83792C15.8773 6.97226 15.1977 5.37312 13.8384 4.04051C12.5058 2.68124 10.9067 2.00161 9.04102 2.00161C7.17535 2.00161 5.56289 2.68124 4.20362 4.04051C2.87101 5.37312 2.2047 6.97226 2.2047 8.83792C2.2047 10.7036 2.87101 12.316 4.20362 13.6753ZM3.00427 2.84115C4.68336 1.16206 6.69561 0.322511 9.04102 0.322511C11.3864 0.322511 13.3853 1.16206 15.0378 2.84115C16.7169 4.4936 17.5564 6.49252 17.5564 8.83792C17.5564 11.1833 16.7169 13.1956 15.0378 14.8747C13.3853 16.5271 11.3864 17.3533 9.04102 17.3533C6.69561 17.3533 4.68336 16.5271 3.00427 14.8747C1.35183 13.1956 0.525606 11.1833 0.525606 8.83792C0.525606 6.49252 1.35183 4.4936 3.00427 2.84115ZM10.96 4.16044C11.6529 4.45362 12.2126 4.81342 12.6391 5.23986C13.0655 5.6663 13.4253 6.22599 13.7185 6.91895C14.0117 7.61191 14.1583 8.25157 14.1583 8.83792C14.1583 9.42427 14.0117 10.0639 13.7185 10.7569C13.452 11.4498 13.1055 12.0095 12.6791 12.436C11.6929 13.4488 10.4936 13.9552 9.08099 13.9552C7.66842 13.9552 6.45574 13.4488 5.44296 12.436L9.04102 8.83792V3.72068C9.62737 3.72068 10.267 3.86727 10.96 4.16044Z" fill="black"/>
</svg>
