<svg width="21" height="21" viewBox="0 0 21 21" fill="none" xmlns="http://www.w3.org/2000/svg">
<path d="M14.1873 13.9461C15.6005 13.9461 16.7459 15.0915 16.7459 16.5047C16.7459 17.9179 15.6005 19.0633 14.1873 19.0633C12.7741 19.0633 11.6287 17.9179 11.6287 16.5047C11.6287 15.0915 12.7741 13.9461 14.1873 13.9461ZM5.65856 10.5346C7.54342 10.5346 9.07006 12.0612 9.07006 13.9461C9.07006 15.8309 7.54342 17.3576 5.65856 17.3576C3.77371 17.3576 2.24707 15.8309 2.24707 13.9461C2.24707 12.0612 3.77371 10.5346 5.65856 10.5346ZM12.908 2.00584C15.499 2.00584 17.5988 4.10562 17.5988 6.69665C17.5988 9.28768 15.499 11.3875 12.908 11.3875C10.317 11.3875 8.21719 9.28768 8.21719 6.69665C8.21719 4.10562 10.317 2.00584 12.908 2.00584Z" fill="black"/>
</svg>
