<svg width="21" height="22" viewBox="0 0 21 22" fill="none" xmlns="http://www.w3.org/2000/svg">
<g clip-path="url(#clip0_1088_2118)">
<path d="M18.452 7.73676C18.9044 7.73676 19.3383 7.91647 19.6581 8.23636C19.978 8.55625 20.1577 8.99011 20.1577 9.44251V12.854C20.1577 13.3064 19.978 13.7403 19.6581 14.0601C19.3383 14.38 18.9044 14.5597 18.452 14.5597H17.5463C17.3383 16.2086 16.5358 17.7249 15.2893 18.8241C14.0428 19.9233 12.4381 20.5298 10.7761 20.5299V18.8241C12.1333 18.8241 13.4349 18.285 14.3946 17.3253C15.3542 16.3656 15.8934 15.0641 15.8934 13.7069V8.58963C15.8934 7.23246 15.3542 5.93087 14.3946 4.9712C13.4349 4.01153 12.1333 3.47239 10.7761 3.47239C9.41896 3.47239 8.11737 4.01153 7.1577 4.9712C6.19804 5.93087 5.6589 7.23246 5.6589 8.58963V14.5597H3.10028C2.64789 14.5597 2.21402 14.38 1.89413 14.0601C1.57424 13.7403 1.39453 13.3064 1.39453 12.854V9.44251C1.39453 8.99011 1.57424 8.55625 1.89413 8.23636C2.21402 7.91647 2.64789 7.73676 3.10028 7.73676H4.00603C4.21416 6.08807 5.01675 4.57198 6.26322 3.47297C7.50969 2.37396 9.11436 1.76756 10.7761 1.76756C12.4379 1.76756 14.0426 2.37396 15.2891 3.47297C16.5355 4.57198 17.3381 6.08807 17.5463 7.73676H18.452ZM7.15996 14.3764L8.064 12.9299C8.87686 13.4391 9.81697 13.7084 10.7761 13.7069C11.7353 13.7084 12.6754 13.4391 13.4883 12.9299L14.3923 14.3764C13.3085 15.0554 12.0551 15.4146 10.7761 15.4126C9.49722 15.4146 8.24374 15.0554 7.15996 14.3764Z" fill="white"/>
</g>
<defs>
<clipPath id="clip0_1088_2118">
<rect width="20.469" height="20.469" fill="white" transform="translate(0.541016 0.913769)"/>
</clipPath>
</defs>
</svg>
