<svg width="19" height="17" viewBox="0 0 19 17" fill="none" xmlns="http://www.w3.org/2000/svg">
<path d="M6.16732 12.5C7.05621 13.3611 8.11176 13.7917 9.33398 13.7917C10.5562 13.7917 11.5979 13.3611 12.459 12.5C13.3479 11.6111 13.7923 10.5555 13.7923 9.33332C13.7923 8.1111 13.3479 7.06944 12.459 6.20832C11.5979 5.31944 10.5562 4.87499 9.33398 4.87499C8.11176 4.87499 7.05621 5.31944 6.16732 6.20832C5.30621 7.06944 4.87565 8.1111 4.87565 9.33332C4.87565 10.5555 5.30621 11.6111 6.16732 12.5ZM6.66732 0.458325H12.0007L13.6257 2.20832H16.459C16.9312 2.20832 17.334 2.38888 17.6673 2.74999C18.0284 3.1111 18.209 3.52777 18.209 3.99999V14.6667C18.209 15.1389 18.0284 15.5555 17.6673 15.9167C17.334 16.2778 16.9312 16.4583 16.459 16.4583H2.20898C1.73676 16.4583 1.3201 16.2778 0.958985 15.9167C0.625652 15.5555 0.458985 15.1389 0.458985 14.6667V3.99999C0.458985 3.52777 0.625652 3.1111 0.958985 2.74999C1.3201 2.38888 1.73676 2.20832 2.20898 2.20832H5.04232L6.66732 0.458325ZM7.33398 11.3333C6.77843 10.7778 6.50065 10.1111 6.50065 9.33332C6.50065 8.55555 6.77843 7.88888 7.33398 7.33332C7.88954 6.77777 8.55621 6.49999 9.33398 6.49999C10.1118 6.49999 10.7784 6.77777 11.334 7.33332C11.8895 7.88888 12.1673 8.55555 12.1673 9.33332C12.1673 10.1111 11.8895 10.7778 11.334 11.3333C10.7784 11.8889 10.1118 12.1667 9.33398 12.1667C8.55621 12.1667 7.88954 11.8889 7.33398 11.3333Z" fill="black"/>
</svg>
