<svg width="24" height="24" viewBox="0 0 24 24" fill="none" xmlns="http://www.w3.org/2000/svg">
<path d="M22.125 15.3752H21V12.3752C20.9997 12.077 20.881 11.791 20.6701 11.5801C20.4592 11.3692 20.1733 11.2506 19.875 11.2502H12.75V8.25024H14.25C14.5483 8.2499 14.8342 8.13126 15.0451 7.92036C15.256 7.70945 15.3747 7.42351 15.375 7.12524V3.75024C15.3747 3.45198 15.256 3.16604 15.0451 2.95513C14.8342 2.74423 14.5483 2.62559 14.25 2.62524H9.75C9.45174 2.62559 9.16579 2.74423 8.95489 2.95513C8.74399 3.16604 8.62535 3.45198 8.625 3.75024V7.12524C8.62535 7.42351 8.74399 7.70945 8.95489 7.92036C9.16579 8.13126 9.45174 8.2499 9.75 8.25024H11.25V11.2502H4.125C3.82673 11.2506 3.54078 11.3692 3.32987 11.5801C3.11897 11.791 3.00033 12.077 3 12.3752V15.3752H1.875C1.57674 15.3756 1.29079 15.4942 1.07989 15.7051C0.868985 15.916 0.750347 16.202 0.75 16.5002V19.8752C0.750347 20.1735 0.868985 20.4595 1.07989 20.6704C1.29079 20.8813 1.57674 20.9999 1.875 21.0002H5.625C5.92326 20.9999 6.20921 20.8813 6.42011 20.6704C6.63101 20.4595 6.74965 20.1735 6.75 19.8752V16.5002C6.74965 16.202 6.63101 15.916 6.42011 15.7051C6.20921 15.4942 5.92326 15.3756 5.625 15.3752H4.5V12.7502H11.25V15.3752H10.125C9.82674 15.3756 9.54079 15.4942 9.32989 15.7051C9.11899 15.916 9.00035 16.202 9 16.5002V19.8752C9.00035 20.1735 9.11899 20.4595 9.32989 20.6704C9.54079 20.8813 9.82674 20.9999 10.125 21.0002H13.875C14.1733 20.9999 14.4592 20.8813 14.6701 20.6704C14.881 20.4595 14.9997 20.1735 15 19.8752V16.5002C14.9997 16.202 14.881 15.916 14.6701 15.7051C14.4592 15.4942 14.1733 15.3756 13.875 15.3752H12.75V12.7502H19.5V15.3752H18.375C18.0767 15.3756 17.7908 15.4942 17.5799 15.7051C17.369 15.916 17.2503 16.202 17.25 16.5002V19.8752C17.2503 20.1735 17.369 20.4595 17.5799 20.6704C17.7908 20.8813 18.0767 20.9999 18.375 21.0002H22.125C22.4233 20.9999 22.7092 20.8813 22.9201 20.6704C23.131 20.4595 23.2497 20.1735 23.25 19.8752V16.5002C23.2497 16.202 23.131 15.916 22.9201 15.7051C22.7092 15.4942 22.4233 15.3756 22.125 15.3752ZM10.125 4.12524H13.875V6.75024H10.125V4.12524ZM5.25 16.8752V19.5002H2.25V16.8752H5.25ZM13.5 16.8752V19.5002H10.5V16.8752H13.5ZM21.75 19.5002H18.75V16.8752H21.75V19.5002Z" fill="black"/>
</svg>
