<svg width="24" height="24" viewBox="0 0 24 24" fill="none" xmlns="http://www.w3.org/2000/svg">
<g clip-path="url(#clip0_1129_3605)">
<path d="M4.50005 6.84517V0.750244H3.00005V6.84517C2.35605 7.01151 1.78558 7.38712 1.3783 7.91298C0.971011 8.43883 0.75 9.08511 0.75 9.75024C0.75 10.4154 0.971011 11.0617 1.3783 11.5875C1.78558 12.1134 2.35605 12.489 3.00005 12.6553V23.2502H4.50005V12.6553C5.14405 12.489 5.71452 12.1134 6.12181 11.5875C6.5291 11.0617 6.75011 10.4154 6.75011 9.75024C6.75011 9.08511 6.5291 8.43883 6.12181 7.91298C5.71452 7.38712 5.14405 7.01151 4.50005 6.84517ZM3.75005 11.2502C3.45338 11.2502 3.16337 11.1623 2.9167 10.9974C2.67002 10.8326 2.47777 10.5984 2.36423 10.3243C2.2507 10.0502 2.221 9.74858 2.27888 9.45761C2.33675 9.16664 2.47961 8.89936 2.68939 8.68958C2.89917 8.47981 3.16645 8.33694 3.45742 8.27907C3.74839 8.22119 4.04999 8.25089 4.32408 8.36442C4.59817 8.47796 4.83244 8.67022 4.99726 8.91689C5.16208 9.16356 5.25005 9.45357 5.25005 9.75024C5.24961 10.1479 5.09143 10.5292 4.81022 10.8104C4.52901 11.0916 4.14774 11.2498 3.75005 11.2502Z" fill="black"/>
<path d="M12.7501 13.5952V0.750244H11.2501V13.5952C10.6061 13.7615 10.0356 14.1371 9.6283 14.663C9.22101 15.1888 9 15.8351 9 16.5002C9 17.1654 9.22101 17.8117 9.6283 18.3375C10.0356 18.8634 10.6061 19.239 11.2501 19.4053V23.2502H12.7501V19.4053C13.3941 19.239 13.9645 18.8634 14.3718 18.3375C14.7791 17.8117 15.0001 17.1654 15.0001 16.5002C15.0001 15.8351 14.7791 15.1888 14.3718 14.663C13.9645 14.1371 13.3941 13.7615 12.7501 13.5952ZM12.0001 18.0002C11.7034 18.0002 11.4134 17.9123 11.1667 17.7474C10.92 17.5826 10.7278 17.3484 10.6142 17.0743C10.5007 16.8002 10.471 16.4986 10.5289 16.2076C10.5868 15.9166 10.7296 15.6494 10.9394 15.4396C11.1492 15.2298 11.4164 15.0869 11.7074 15.0291C11.9984 14.9712 12.3 15.0009 12.5741 15.1144C12.8482 15.228 13.0824 15.4202 13.2473 15.6669C13.4121 15.9136 13.5001 16.2036 13.5001 16.5002C13.4996 16.8979 13.3414 17.2792 13.0602 17.5604C12.779 17.8416 12.3977 17.9998 12.0001 18.0002Z" fill="black"/>
<path d="M21.0001 3.84517V0.750244H19.5001V3.84517C18.8561 4.01151 18.2856 4.38712 17.8783 4.91298C17.471 5.43883 17.25 6.08511 17.25 6.75024C17.25 7.41538 17.471 8.06166 17.8783 8.58751C18.2856 9.11337 18.8561 9.48898 19.5001 9.65532V23.2502H21.0001V9.65532C21.6441 9.48898 22.2145 9.11337 22.6218 8.58751C23.0291 8.06166 23.2501 7.41538 23.2501 6.75024C23.2501 6.08511 23.0291 5.43883 22.6218 4.91298C22.2145 4.38712 21.6441 4.01151 21.0001 3.84517ZM20.2501 8.25024C19.9534 8.25024 19.6634 8.16227 19.4167 7.99745C19.17 7.83263 18.9778 7.59836 18.8642 7.32427C18.7507 7.05018 18.721 6.74858 18.7789 6.45761C18.8368 6.16664 18.9796 5.89936 19.1894 5.68958C19.3992 5.4798 19.6664 5.33694 19.9574 5.27907C20.2484 5.22119 20.55 5.25089 20.8241 5.36442C21.0982 5.47796 21.3324 5.67022 21.4973 5.91689C21.6621 6.16356 21.7501 6.45357 21.7501 6.75024C21.7496 7.14793 21.5914 7.5292 21.3102 7.81041C21.029 8.09162 20.6477 8.2498 20.2501 8.25024Z" fill="black"/>
</g>
<defs>
<clipPath id="clip0_1129_3605">
<rect width="24" height="24" fill="white" transform="translate(0 0.000244141)"/>
</clipPath>
</defs>
</svg>
