<svg width="24" height="24" viewBox="0 0 24 24" fill="none" xmlns="http://www.w3.org/2000/svg">
<path d="M21.0638 4.20264L21.0316 4.18257L16.9726 2.18284L12.5915 8.02426L14.6071 10.7119C14.5468 11.7255 14.117 12.6818 13.399 13.3998C12.681 14.1178 11.7247 14.5476 10.7111 14.6079L8.0235 12.5923L2.18213 16.9733L4.16522 20.9984L4.18191 21.0324L4.20202 21.0644C4.30785 21.2349 4.45556 21.3755 4.63109 21.4728C4.80662 21.5701 5.00413 21.6208 5.20482 21.6202H6.25219C8.27026 21.6202 10.2686 21.2227 12.133 20.4504C13.9975 19.6782 15.6916 18.5462 17.1185 17.1192C18.5455 15.6922 19.6775 13.9981 20.4498 12.1337C21.222 10.2692 21.6195 8.27092 21.6195 6.25285V5.20543C21.6201 5.00475 21.5694 4.80724 21.4721 4.63171C21.3749 4.45618 21.2343 4.30847 21.0638 4.20264ZM20.1195 6.25285C20.1195 13.8993 13.8986 20.1202 6.25219 20.1202H5.40469L4.07785 17.4266L8.02379 14.4672L10.2207 16.1148H10.4707C11.967 16.1131 13.4015 15.518 14.4595 14.4599C15.5176 13.4019 16.1127 11.9673 16.1144 10.471V10.2211L14.4668 8.02421L17.4259 4.07851L20.1195 5.40559V6.25285Z" fill="#BBFF34"/>
</svg>
