<svg width="34" height="35" viewBox="0 0 34 35" fill="none" xmlns="http://www.w3.org/2000/svg">
<path d="M24 12.3596V7.59961C23.9997 7.33449 23.8943 7.08031 23.7068 6.89284C23.5193 6.70537 23.2652 6.59991 23 6.59961H10.6C10.3349 6.59991 10.0807 6.70537 9.89328 6.89284C9.70581 7.08031 9.60035 7.33449 9.60005 7.59961V12.3596L4.80005 15.7879V28.9996H28.8V15.7879L24 12.3596ZM26.684 16.243L24 17.9976V14.3256L26.684 16.243ZM11.2 8.19961H22.4V19.0438L19.5417 20.9127L17.2128 19.7051L14.6746 20.9304L11.2 18.8209V8.19961ZM17.1872 21.4941L27.2 26.686V27.3996H6.40005V26.7018L17.1872 21.4941ZM6.40005 17.7784L12.9572 21.7596L6.40005 24.9251V17.7784ZM21.1723 21.7584L27.2 17.817V24.8837L21.1723 21.7584ZM9.60005 14.3256V17.8496L6.93335 16.2304L9.60005 14.3256Z" fill="white" fill-opacity="0.8"/>
</svg>
