<svg width="94" height="93" viewBox="0 0 94 93" fill="none" xmlns="http://www.w3.org/2000/svg">
<path d="M3.05371 11.2862V0.0959162H4.22075V11.2862H3.05371Z" fill="white"/>
<path d="M10.8279 11.2862L5.93891 0.0959162H7.20057L11.7741 10.6307H11.0802L15.6853 0.0959162H16.8681L11.9791 11.2862H10.8279Z" fill="white"/>
<path d="M16.3651 11.2862L21.4118 0.0959162H22.5631L27.6097 11.2862H26.3796L21.743 0.783318H22.2161L17.5795 11.2862H16.3651ZM18.3523 8.29678L18.6992 7.33761H25.1179L25.4649 8.29678H18.3523Z" fill="white"/>
<path d="M29.4359 11.2862V0.0959162H30.398L38.0153 9.81545H37.5106V0.0959162H38.6619V11.2862H37.6998L30.0983 1.56664H30.603V11.2862H29.4359Z" fill="white"/>
<path d="M47.402 8.50459L47.3547 7.06585L54.0415 0.0959162H55.382L50.5088 5.27541L49.8464 5.99478L47.402 8.50459ZM46.3926 11.2862V0.0959162H47.5597V11.2862H46.3926ZM54.3254 11.2862L49.5626 5.72302L50.3511 4.85977L55.7132 11.2862H54.3254Z" fill="white"/>
<path d="M62.0301 11.3821C61.1995 11.3821 60.4268 11.2435 59.7118 10.9665C59.0074 10.6787 58.3923 10.279 57.8666 9.7675C57.3515 9.24528 56.9467 8.64314 56.6523 7.96107C56.3684 7.26834 56.2265 6.51166 56.2265 5.69104C56.2265 4.87043 56.3684 4.11908 56.6523 3.43701C56.9467 2.74428 57.3515 2.14213 57.8666 1.63058C58.3923 1.10837 59.0074 0.708716 59.7118 0.431624C60.4163 0.143875 61.189 0 62.0301 0C62.8607 0 63.6282 0.143875 64.3327 0.431624C65.0371 0.708716 65.6469 1.10304 66.1621 1.61459C66.6878 2.12615 67.0926 2.72829 67.3764 3.42102C67.6708 4.11375 67.818 4.87043 67.818 5.69104C67.818 6.51166 67.6708 7.26834 67.3764 7.96107C67.0926 8.6538 66.6878 9.25594 66.1621 9.7675C65.6469 10.279 65.0371 10.6787 64.3327 10.9665C63.6282 11.2435 62.8607 11.3821 62.0301 11.3821ZM62.0301 10.327C62.6925 10.327 63.3023 10.2151 63.8596 9.9913C64.4273 9.75684 64.9162 9.43179 65.3262 9.01615C65.7468 8.58985 66.0727 8.09961 66.304 7.54543C66.5353 6.98059 66.651 6.36246 66.651 5.69104C66.651 5.01963 66.5353 4.40683 66.304 3.85265C66.0727 3.2878 65.7468 2.79756 65.3262 2.38193C64.9162 1.95563 64.4273 1.63058 63.8596 1.40677C63.3023 1.17231 62.6925 1.05508 62.0301 1.05508C61.3678 1.05508 60.7527 1.17231 60.185 1.40677C59.6172 1.63058 59.1231 1.95563 58.7025 2.38193C58.2925 2.79756 57.9665 3.2878 57.7247 3.85265C57.4934 4.40683 57.3778 5.01963 57.3778 5.69104C57.3778 6.3518 57.4934 6.9646 57.7247 7.52944C57.9665 8.09429 58.2925 8.58985 58.7025 9.01615C59.1231 9.43179 59.6172 9.75684 60.185 9.9913C60.7527 10.2151 61.3678 10.327 62.0301 10.327Z" fill="white"/>
<path d="M70.4339 11.2862V0.0959162H74.5658C75.5016 0.0959162 76.3059 0.250449 76.9788 0.559513C77.6517 0.85792 78.1668 1.29487 78.5243 1.87037C78.8923 2.43521 79.0763 3.12261 79.0763 3.93258C79.0763 4.72122 78.8923 5.4033 78.5243 5.97879C78.1668 6.54364 77.6517 6.98059 76.9788 7.28965C76.3059 7.58806 75.5016 7.73726 74.5658 7.73726H71.0805L71.6009 7.19374V11.2862H70.4339ZM77.9723 11.2862L75.1336 7.22571H76.3953L79.2498 11.2862H77.9723ZM71.6009 7.28965L71.0805 6.73014H74.5343C75.6383 6.73014 76.4741 6.48502 77.0419 5.99478C77.6201 5.50454 77.9093 4.81714 77.9093 3.93258C77.9093 3.03736 77.6201 2.34462 77.0419 1.85439C76.4741 1.36415 75.6383 1.11903 74.5343 1.11903H71.0805L71.6009 0.559513V7.28965Z" fill="white"/>
<path d="M81.8308 11.2862V0.0959162H82.7928L90.4101 9.81545H89.9054V0.0959162H91.0567V11.2862H90.0947L82.4931 1.56664H82.9978V11.2862H81.8308Z" fill="white"/>
<path d="M4.6529 65.3818V26.5162H13.6475V65.3818H4.6529ZM30.9219 56.4983L30.4222 46.1156L49.0222 26.5162H59.0163L42.2485 44.5609L37.2515 49.8911L30.9219 56.4983ZM22.8712 65.3818V26.5162H31.8103V65.3818H22.8712ZM49.4664 65.3818L35.6413 48.4475L41.5267 42.0624L59.9601 65.3818H49.4664Z" fill="white"/>
<path d="M75.9276 66.0481C72.8183 66.0481 69.8386 65.6409 66.9885 64.8266C64.1383 63.9753 61.8434 62.8833 60.1037 61.5508L63.1574 54.7771C64.8231 55.9615 66.7849 56.9424 69.0428 57.7197C71.3377 58.46 73.6512 58.8302 75.9831 58.8302C77.7598 58.8302 79.1849 58.6636 80.2583 58.3305C81.3688 57.9603 82.1831 57.4606 82.7013 56.8314C83.2195 56.2021 83.4786 55.4803 83.4786 54.666C83.4786 53.6296 83.0715 52.8153 82.2571 52.223C81.4428 51.5938 80.3694 51.0941 79.0368 50.7239C77.7043 50.3168 76.2237 49.9466 74.5951 49.6135C73.0034 49.2433 71.3933 48.7991 69.7646 48.2809C68.173 47.7627 66.7109 47.0965 65.3783 46.2821C64.0458 45.4678 62.9539 44.3944 62.1025 43.0618C61.2882 41.7293 60.881 40.0266 60.881 37.9538C60.881 35.7329 61.4733 33.7156 62.6577 31.9018C63.8792 30.0511 65.693 28.589 68.0989 27.5156C70.5419 26.4051 73.5957 25.8499 77.2601 25.8499C79.7031 25.8499 82.1091 26.146 84.478 26.7383C86.847 27.2935 88.9383 28.1448 90.7521 29.2923L87.976 36.1215C86.1622 35.0851 84.3485 34.3263 82.5348 33.8451C80.721 33.3269 78.9443 33.0678 77.2046 33.0678C75.4649 33.0678 74.0398 33.2714 72.9294 33.6785C71.8189 34.0857 71.0231 34.6224 70.5419 35.2887C70.0607 35.918 69.8201 36.6583 69.8201 37.5096C69.8201 38.509 70.2273 39.3233 71.0416 39.9526C71.856 40.5448 72.9294 41.026 74.2619 41.3962C75.5945 41.7663 77.0566 42.1365 78.6482 42.5066C80.2768 42.8768 81.887 43.3024 83.4786 43.7836C85.1073 44.2648 86.5879 44.9126 87.9204 45.7269C89.253 46.5412 90.3264 47.6147 91.1407 48.9472C91.9921 50.2797 92.4177 51.9639 92.4177 53.9997C92.4177 56.1836 91.807 58.1824 90.5855 59.9962C89.364 61.8099 87.5318 63.272 85.0888 64.3824C82.6828 65.4929 79.6291 66.0481 75.9276 66.0481Z" fill="#BBFF34"/>
<path d="M8.08753 92.9997C7.08076 92.9997 6.11272 92.8373 5.1834 92.5124C4.26699 92.1744 3.55709 91.7455 3.05371 91.2257L3.61518 90.1144C4.09274 90.5823 4.73165 90.9787 5.5319 91.3037C6.34505 91.6156 7.19693 91.7715 8.08753 91.7715C8.9394 91.7715 9.62994 91.6676 10.1591 91.4596C10.7012 91.2387 11.0949 90.9462 11.3401 90.5823C11.5983 90.2184 11.7274 89.8155 11.7274 89.3736C11.7274 88.8408 11.5725 88.4119 11.2627 88.0869C10.9658 87.762 10.5722 87.5086 10.0817 87.3266C9.59122 87.1317 9.04911 86.9627 8.45538 86.8198C7.86165 86.6768 7.26792 86.5273 6.67419 86.3714C6.08045 86.2024 5.5319 85.9815 5.02852 85.7085C4.53804 85.4356 4.13792 85.0782 3.82814 84.6363C3.53128 84.1814 3.38285 83.59 3.38285 82.8622C3.38285 82.1864 3.55709 81.569 3.90559 81.0102C4.26699 80.4383 4.81555 79.9834 5.55126 79.6455C6.28697 79.2946 7.2292 79.1191 8.37794 79.1191C9.13946 79.1191 9.89454 79.2296 10.6432 79.4506C11.3918 79.6585 12.0371 79.9509 12.5792 80.3278L12.0952 81.4781C11.5144 81.0882 10.8948 80.8022 10.2366 80.6203C9.59122 80.4383 8.96522 80.3473 8.35858 80.3473C7.54542 80.3473 6.87425 80.4578 6.34505 80.6788C5.81586 80.8997 5.42219 81.1986 5.16404 81.5755C4.9188 81.9394 4.79619 82.3553 4.79619 82.8232C4.79619 83.3561 4.94462 83.785 5.24148 84.1099C5.55126 84.4348 5.95138 84.6883 6.44186 84.8702C6.94524 85.0522 7.49379 85.2146 8.08753 85.3576C8.68126 85.5006 9.26854 85.6565 9.84936 85.8255C10.4431 85.9945 10.9852 86.2154 11.4757 86.4883C11.9791 86.7483 12.3792 87.0992 12.676 87.5411C12.9858 87.983 13.1407 88.5613 13.1407 89.2762C13.1407 89.939 12.96 90.5563 12.5986 91.1282C12.2372 91.6871 11.6822 92.1419 10.9336 92.4929C10.1979 92.8308 9.24918 92.9997 8.08753 92.9997Z" fill="#BBFF34"/>
<path d="M19.212 92.8828V87.814L19.5411 88.7108L13.791 79.2361H15.3205L20.3736 87.5606H19.5605L24.6137 79.2361H26.0464L20.2962 88.7108L20.6253 87.814V92.8828H19.212Z" fill="#BBFF34"/>
<path d="M31.7213 92.9997C30.7146 92.9997 29.7465 92.8373 28.8172 92.5124C27.9008 92.1744 27.1909 91.7455 26.6875 91.2257L27.249 90.1144C27.7266 90.5823 28.3655 90.9787 29.1657 91.3037C29.9789 91.6156 30.8308 91.7715 31.7213 91.7715C32.5732 91.7715 33.2638 91.6676 33.793 91.4596C34.3351 91.2387 34.7287 90.9462 34.974 90.5823C35.2321 90.2184 35.3612 89.8155 35.3612 89.3736C35.3612 88.8408 35.2063 88.4119 34.8965 88.0869C34.5997 87.762 34.206 87.5086 33.7155 87.3266C33.225 87.1317 32.6829 86.9627 32.0892 86.8198C31.4955 86.6768 30.9017 86.5273 30.308 86.3714C29.7143 86.2024 29.1657 85.9815 28.6623 85.7085C28.1719 85.4356 27.7717 85.0782 27.462 84.6363C27.1651 84.1814 27.0167 83.59 27.0167 82.8622C27.0167 82.1864 27.1909 81.569 27.5394 81.0102C27.9008 80.4383 28.4494 79.9834 29.1851 79.6455C29.9208 79.2946 30.863 79.1191 32.0118 79.1191C32.7733 79.1191 33.5284 79.2296 34.277 79.4506C35.0256 79.6585 35.671 79.9509 36.2131 80.3278L35.729 81.4781C35.1482 81.0882 34.5287 80.8022 33.8704 80.6203C33.225 80.4383 32.599 80.3473 31.9924 80.3473C31.1792 80.3473 30.5081 80.4578 29.9789 80.6788C29.4497 80.8997 29.056 81.1986 28.7979 81.5755C28.5526 81.9394 28.43 82.3553 28.43 82.8232C28.43 83.3561 28.5784 83.785 28.8753 84.1099C29.1851 84.4348 29.5852 84.6883 30.0757 84.8702C30.5791 85.0522 31.1276 85.2146 31.7213 85.3576C32.3151 85.5006 32.9024 85.6565 33.4832 85.8255C34.0769 85.9945 34.619 86.2154 35.1095 86.4883C35.6129 86.7483 36.013 87.0992 36.3099 87.5411C36.6196 87.983 36.7745 88.5613 36.7745 89.2762C36.7745 89.939 36.5938 90.5563 36.2324 91.1282C35.871 91.6871 35.316 92.1419 34.5674 92.4929C33.8317 92.8308 32.883 92.9997 31.7213 92.9997Z" fill="#BBFF34"/>
<path d="M42.3402 92.8828V80.4838H37.5774V79.2361H48.5356V80.4838H43.7729V92.8828H42.3402Z" fill="#BBFF34"/>
<path d="M52.1022 85.3381H59.2658V86.5663H52.1022V85.3381ZM52.2571 91.6351H60.408V92.8828H50.8244V79.2361H60.1176V80.4838H52.2571V91.6351Z" fill="#BBFF34"/>
<path d="M63.7758 92.8828V79.2361H64.9568L71.1523 89.8805H70.5327L76.6701 79.2361H77.8511V92.8828H76.4765V81.4001H76.8056L71.1523 91.1477H70.4746L64.7825 81.4001H65.1504V92.8828H63.7758Z" fill="#BBFF34"/>
<path d="M86.0035 92.9997C84.9968 92.9997 84.0287 92.8373 83.0994 92.5124C82.183 92.1744 81.4731 91.7455 80.9697 91.2257L81.5312 90.1144C82.0087 90.5823 82.6476 90.9787 83.4479 91.3037C84.261 91.6156 85.1129 91.7715 86.0035 91.7715C86.8554 91.7715 87.5459 91.6676 88.0751 91.4596C88.6172 91.2387 89.0109 90.9462 89.2561 90.5823C89.5143 90.2184 89.6434 89.8155 89.6434 89.3736C89.6434 88.8408 89.4885 88.4119 89.1787 88.0869C88.8818 87.762 88.4882 87.5086 87.9977 87.3266C87.5072 87.1317 86.9651 86.9627 86.3714 86.8198C85.7776 86.6768 85.1839 86.5273 84.5902 86.3714C83.9964 86.2024 83.4479 85.9815 82.9445 85.7085C82.454 85.4356 82.0539 85.0782 81.7441 84.6363C81.4473 84.1814 81.2988 83.59 81.2988 82.8622C81.2988 82.1864 81.4731 81.569 81.8216 81.0102C82.183 80.4383 82.7315 79.9834 83.4672 79.6455C84.203 79.2946 85.1452 79.1191 86.2939 79.1191C87.0555 79.1191 87.8105 79.2296 88.5591 79.4506C89.3078 79.6585 89.9531 79.9509 90.4952 80.3278L90.0112 81.4781C89.4304 81.0882 88.8108 80.8022 88.1526 80.6203C87.5072 80.4383 86.8812 80.3473 86.2746 80.3473C85.4614 80.3473 84.7902 80.4578 84.261 80.6788C83.7318 80.8997 83.3382 81.1986 83.08 81.5755C82.8348 81.9394 82.7122 82.3553 82.7122 82.8232C82.7122 83.3561 82.8606 83.785 83.1575 84.1099C83.4672 84.4348 83.8674 84.6883 84.3578 84.8702C84.8612 85.0522 85.4098 85.2146 86.0035 85.3576C86.5973 85.5006 87.1845 85.6565 87.7654 85.8255C88.3591 85.9945 88.9012 86.2154 89.3917 86.4883C89.895 86.7483 90.2952 87.0992 90.592 87.5411C90.9018 87.983 91.0567 88.5613 91.0567 89.2762C91.0567 89.939 90.876 90.5563 90.5146 91.1282C90.1532 91.6871 89.5982 92.1419 88.8496 92.4929C88.1139 92.8308 87.1652 92.9997 86.0035 92.9997Z" fill="#BBFF34"/>
</svg>
