<svg width="374" height="170" viewBox="0 0 374 170" fill="none" xmlns="http://www.w3.org/2000/svg">
<g clip-path="url(#clip0_1088_2078)">
<rect width="373.333" height="169.333" fill="white"/>
<mask id="mask0_1088_2078" style="mask-type:luminance" maskUnits="userSpaceOnUse" x="0" y="0" width="374" height="170">
<rect width="373.333" height="169.333" fill="white"/>
</mask>
<g mask="url(#mask0_1088_2078)">
<path d="M-267.359 121.529L-256.7 135.553L-245.412 124.645L-232.874 132.264L-223.472 135.206L-212.811 123.087L-202.152 128.454L-190.239 142.652L-179.58 135.553L-168.921 161.957L-161.692 169.333L-156.856 122.545L-154.201 81.5368L-145.516 73.7196L-138.248 92.7861C-138.248 92.7861 -126.912 96.249 -126.912 96.249L-116.253 92.6129L-104.342 100.404C-104.342 100.404 -94.3054 111.486 -94.3054 111.14C-94.3054 110.793 -82.3948 105.426 -82.3948 105.426L-71.7383 114.256L-61.0793 113.909L-51.0449 103.521L-39.7589 108.716L-26.5944 110.966L-17.814 103.867L-6.52802 110.793L5.38248 103.521L14.7875 100.058H46.7937L58.0553 78.4148L69.9658 89.3231L90.0322 82.0509L100.689 74.7787L111.975 96.0759L121.382 106.811H134.604L144.581 103.348L155.862 82.2234L167.151 74.4324L176.558 61.2732L187.217 53.8279L197.246 60.7538L222.324 64.9087L229.223 70.7963L241.763 74.6056L253.047 68.5447L261.827 74.9519L271.682 52.0203L277.739 58.1238L280.89 88.1616L288.415 83.5216L295.685 93.5191L308.225 84.2569L317.001 58.934L328.914 46.9013L338.946 44.8236L350.861 60.7538L360.893 78.0888L371.55 105.032L384.092 102.48L396.002 93.0867L403.529 76.8767L416.069 67.8528L424.844 57.4633L438.011 68.0253L448.673 57.1177L459.334 51.4038L469.364 57.8103L478.769 64.563L490.684 46.902L501.341 67.8528L512 117.333" stroke="#81DE4A" stroke-width="2.66667"/>
<path fill-rule="evenodd" clip-rule="evenodd" d="M-265.692 141.566L-256.263 135.553L-244.981 124.645L-232.451 132.264L-223.054 135.206L-212.398 123.087L-201.745 128.454L-189.839 142.653L-179.186 135.553L-168.533 161.957L-161.309 169.333L-156.475 122.545L-153.822 81.5368L-145.142 73.7196L-137.879 92.7861L-126.548 96.249L-115.895 92.6129L-103.992 100.404C-103.992 100.404 -93.9605 111.486 -93.9605 111.14C-93.9605 110.793 -82.0567 105.426 -82.0567 105.426L-71.4063 114.256L-60.7534 113.909L-50.7246 103.521L-39.4451 108.716L-26.288 110.966L-17.5126 103.867L-6.23303 110.793L5.67072 103.521L15.0703 100.058H47.0584L58.3136 78.4148L70.2173 89.3231L90.2723 82.0509L100.923 74.7787L112.202 96.0759L121.604 106.811H134.818L144.79 103.348L156.065 82.2234L167.347 74.4324L176.749 61.2732L187.402 53.8279L197.426 60.7538L222.489 64.9087L229.384 70.7963L241.917 74.6056L253.194 68.5448L261.97 74.9519L271.819 52.0203L277.873 58.1238L281.022 88.1616L288.542 83.5216L295.808 93.5191L308.341 84.2569L317.112 58.934L329.018 46.9013L339.044 44.8236L350.953 60.7538L360.979 78.0888L371.63 105.032L384.165 102.48L396.069 93.0867L403.591 76.8767L416.124 67.8528L424.894 57.4633L438.054 68.0253L448.709 57.1177L459.365 51.4038L469.388 57.8103L478.788 64.563L490.697 46.902L501.347 67.8528L512 117.333V141.213L-265.692 141.566Z" fill="url(#paint0_linear_1088_2078)"/>
</g>
</g>
<defs>
<linearGradient id="paint0_linear_1088_2078" x1="-466.474" y1="-57.2805" x2="-466.474" y2="131.52" gradientUnits="userSpaceOnUse">
<stop stop-color="#81DE4A"/>
<stop offset="1" stop-color="white" stop-opacity="0.01"/>
</linearGradient>
<clipPath id="clip0_1088_2078">
<rect width="373.333" height="169.333" fill="white"/>
</clipPath>
</defs>
</svg>
