<svg width="94" height="106" viewBox="0 0 94 106" fill="none" xmlns="http://www.w3.org/2000/svg">
<path d="M3.05383 79.2862V68.0959H4.22087V79.2862H3.05383Z" fill="white"/>
<path d="M10.828 79.2862L5.93903 68.0959H7.20069L11.7742 78.6307H11.0803L15.6854 68.0959H16.8682L11.9792 79.2862H10.828Z" fill="white"/>
<path d="M16.3653 79.2862L21.4119 68.0959H22.5632L27.6098 79.2862H26.3797L21.7431 68.7833H22.2162L17.5796 79.2862H16.3653ZM18.3524 76.2968L18.6993 75.3376H25.1181L25.465 76.2968H18.3524Z" fill="white"/>
<path d="M29.4361 79.2862V68.0959H30.3981L38.0154 77.8155H37.5107V68.0959H38.662V79.2862H37.7L30.0984 69.5666H30.6031V79.2862H29.4361Z" fill="white"/>
<path d="M47.4021 76.5046L47.3548 75.0658L54.0416 68.0959H55.3821L50.5089 73.2754L49.8466 73.9948L47.4021 76.5046ZM46.3928 79.2862V68.0959H47.5598V79.2862H46.3928ZM54.3255 79.2862L49.5627 73.723L50.3512 72.8598L55.7133 79.2862H54.3255Z" fill="white"/>
<path d="M62.0303 79.3821C61.1997 79.3821 60.4269 79.2435 59.712 78.9665C59.0075 78.6787 58.3925 78.279 57.8668 77.7675C57.3516 77.2453 56.9468 76.6431 56.6524 75.9611C56.3685 75.2683 56.2266 74.5117 56.2266 73.691C56.2266 72.8704 56.3685 72.1191 56.6524 71.437C56.9468 70.7443 57.3516 70.1421 57.8668 69.6306C58.3925 69.1084 59.0075 68.7087 59.712 68.4316C60.4164 68.1439 61.1892 68 62.0303 68C62.8609 68 63.6284 68.1439 64.3328 68.4316C65.0372 68.7087 65.647 69.103 66.1622 69.6146C66.6879 70.1261 67.0927 70.7283 67.3766 71.421C67.671 72.1138 67.8182 72.8704 67.8182 73.691C67.8182 74.5117 67.671 75.2683 67.3766 75.9611C67.0927 76.6538 66.6879 77.2559 66.1622 77.7675C65.647 78.279 65.0372 78.6787 64.3328 78.9665C63.6284 79.2435 62.8609 79.3821 62.0303 79.3821ZM62.0303 78.327C62.6926 78.327 63.3024 78.2151 63.8597 77.9913C64.4274 77.7568 64.9163 77.4318 65.3264 77.0161C65.7469 76.5899 66.0728 76.0996 66.3041 75.5454C66.5355 74.9806 66.6511 74.3625 66.6511 73.691C66.6511 73.0196 66.5355 72.4068 66.3041 71.8526C66.0728 71.2878 65.7469 70.7976 65.3264 70.3819C64.9163 69.9556 64.4274 69.6306 63.8597 69.4068C63.3024 69.1723 62.6926 69.0551 62.0303 69.0551C61.3679 69.0551 60.7528 69.1723 60.1851 69.4068C59.6173 69.6306 59.1232 69.9556 58.7026 70.3819C58.2926 70.7976 57.9666 71.2878 57.7248 71.8526C57.4935 72.4068 57.3779 73.0196 57.3779 73.691C57.3779 74.3518 57.4935 74.9646 57.7248 75.5294C57.9666 76.0943 58.2926 76.5899 58.7026 77.0161C59.1232 77.4318 59.6173 77.7568 60.1851 77.9913C60.7528 78.2151 61.3679 78.327 62.0303 78.327Z" fill="white"/>
<path d="M70.434 79.2862V68.0959H74.566C75.5017 68.0959 76.306 68.2504 76.9789 68.5595C77.6518 68.8579 78.167 69.2949 78.5244 69.8704C78.8924 70.4352 79.0764 71.1226 79.0764 71.9326C79.0764 72.7212 78.8924 73.4033 78.5244 73.9788C78.167 74.5436 77.6518 74.9806 76.9789 75.2897C76.306 75.5881 75.5017 75.7373 74.566 75.7373H71.0806L71.6011 75.1937V79.2862H70.434ZM77.9725 79.2862L75.1337 75.2257H76.3954L79.2499 79.2862H77.9725ZM71.6011 75.2897L71.0806 74.7301H74.5344C75.6384 74.7301 76.4742 74.485 77.042 73.9948C77.6202 73.5045 77.9094 72.8171 77.9094 71.9326C77.9094 71.0374 77.6202 70.3446 77.042 69.8544C76.4742 69.3641 75.6384 69.119 74.5344 69.119H71.0806L71.6011 68.5595V75.2897Z" fill="white"/>
<path d="M81.8309 79.2862V68.0959H82.7929L90.4102 77.8155H89.9055V68.0959H91.0568V79.2862H90.0948L82.4933 69.5666H82.9979V79.2862H81.8309Z" fill="white"/>
<path d="M4.65302 54V15.1343H13.6476V54H4.65302ZM30.9221 45.1164L30.4224 34.7337L49.0224 15.1343H59.0164L42.2486 33.1791L37.2516 38.5093L30.9221 45.1164ZM22.8713 54V15.1343H31.8104V54H22.8713ZM49.4665 54L35.6415 37.0657L41.5268 30.6806L59.9603 54H49.4665Z" fill="white"/>
<path d="M75.9277 54.6663C72.8185 54.6663 69.8388 54.2591 66.9886 53.4448C64.1385 52.5934 61.8435 51.5015 60.1038 50.169L63.1576 43.3952C64.8232 44.5797 66.785 45.5606 69.0429 46.3379C71.3379 47.0782 73.6513 47.4484 75.9832 47.4484C77.76 47.4484 79.185 47.2818 80.2585 46.9487C81.3689 46.5785 82.1832 46.0788 82.7015 45.4496C83.2197 44.8203 83.4788 44.0985 83.4788 43.2842C83.4788 42.2478 83.0716 41.4334 82.2573 40.8412C81.4429 40.2119 80.3695 39.7122 79.037 39.3421C77.7044 38.9349 76.2238 38.5648 74.5952 38.2316C73.0035 37.8615 71.3934 37.4173 69.7647 36.8991C68.1731 36.3809 66.711 35.7146 65.3785 34.9003C64.0459 34.086 62.954 33.0125 62.1026 31.68C61.2883 30.3475 60.8812 28.6448 60.8812 26.5719C60.8812 24.351 61.4734 22.3337 62.6579 20.52C63.8794 18.6693 65.6931 17.2072 68.0991 16.1337C70.542 15.0233 73.5958 14.4681 77.2603 14.4681C79.7032 14.4681 82.1092 14.7642 84.4782 15.3564C86.8471 15.9116 88.9385 16.763 90.7522 17.9104L87.9761 24.7397C86.1623 23.7033 84.3486 22.9445 82.5349 22.4633C80.7212 21.9451 78.9444 21.686 77.2047 21.686C75.465 21.686 74.04 21.8896 72.9295 22.2967C71.8191 22.7039 71.0232 23.2406 70.542 23.9069C70.0609 24.5361 69.8203 25.2764 69.8203 26.1278C69.8203 27.1272 70.2274 27.9415 71.0417 28.5707C71.8561 29.163 72.9295 29.6442 74.262 30.0143C75.5946 30.3845 77.0567 30.7546 78.6483 31.1248C80.277 31.4949 81.8871 31.9206 83.4788 32.4018C85.1074 32.883 86.588 33.5307 87.9206 34.3451C89.2531 35.1594 90.3265 36.2328 91.1409 37.5654C91.9922 38.8979 92.4179 40.5821 92.4179 42.6179C92.4179 44.8018 91.8071 46.8006 90.5856 48.6143C89.3641 50.4281 87.5319 51.8901 85.0889 53.0006C82.6829 54.111 79.6292 54.6663 75.9277 54.6663Z" fill="#BBFF34"/>
<path d="M8.03394 105.881C7.02717 105.881 6.05913 105.718 5.12981 105.393C4.2134 105.055 3.5035 104.626 3.00012 104.107L3.56159 102.995C4.03915 103.463 4.67806 103.86 5.47831 104.185C6.29146 104.496 7.14334 104.652 8.03394 104.652C8.88581 104.652 9.57635 104.548 10.1055 104.34C10.6476 104.12 11.0413 103.827 11.2866 103.463C11.5447 103.099 11.6738 102.696 11.6738 102.254C11.6738 101.722 11.5189 101.293 11.2091 100.968C10.9122 100.643 10.5186 100.389 10.0281 100.207C9.53763 100.013 8.99553 99.8436 8.40179 99.7006C7.80806 99.5576 7.21433 99.4082 6.6206 99.2522C6.02687 99.0833 5.47831 98.8623 4.97493 98.5894C4.48445 98.3165 4.08433 97.959 3.77456 97.5171C3.47769 97.0623 3.32926 96.4709 3.32926 95.7431C3.32926 95.0672 3.5035 94.4499 3.852 93.891C4.2134 93.3192 4.76196 92.8643 5.49767 92.5264C6.23338 92.1755 7.17561 92 8.32435 92C9.08588 92 9.84095 92.1105 10.5896 92.3314C11.3382 92.5394 11.9835 92.8318 12.5257 93.2087L12.0416 94.3589C11.4608 93.969 10.8413 93.6831 10.183 93.5011C9.53763 93.3192 8.91163 93.2282 8.30499 93.2282C7.49183 93.2282 6.82066 93.3387 6.29146 93.5596C5.76227 93.7806 5.3686 94.0795 5.11045 94.4564C4.86522 94.8203 4.7426 95.2362 4.7426 95.7041C4.7426 96.237 4.89103 96.6659 5.1879 96.9908C5.49767 97.3157 5.89779 97.5691 6.38827 97.7511C6.89165 97.933 7.44021 98.0955 8.03394 98.2385C8.62767 98.3814 9.21495 98.5374 9.79577 98.7064C10.3895 98.8753 10.9316 99.0963 11.4221 99.3692C11.9255 99.6291 12.3256 99.98 12.6225 100.422C12.9322 100.864 13.0871 101.442 13.0871 102.157C13.0871 102.82 12.9064 103.437 12.545 104.009C12.1836 104.568 11.6286 105.023 10.88 105.374C10.1443 105.712 9.19559 105.881 8.03394 105.881Z" fill="#BBFF34"/>
<path d="M19.1584 105.764V100.695L19.4875 101.592L13.7374 92.117H15.2669L20.32 100.441H19.5069L24.5601 92.117H25.9928L20.2426 101.592L20.5717 100.695V105.764H19.1584Z" fill="#BBFF34"/>
<path d="M31.6678 105.881C30.661 105.881 29.693 105.718 28.7636 105.393C27.8472 105.055 27.1373 104.626 26.6339 104.107L27.1954 102.995C27.673 103.463 28.3119 103.86 29.1121 104.185C29.9253 104.496 30.7772 104.652 31.6678 104.652C32.5196 104.652 33.2102 104.548 33.7394 104.34C34.2815 104.12 34.6751 103.827 34.9204 103.463C35.1785 103.099 35.3076 102.696 35.3076 102.254C35.3076 101.722 35.1527 101.293 34.8429 100.968C34.5461 100.643 34.1524 100.389 33.6619 100.207C33.1715 100.013 32.6293 99.8436 32.0356 99.7006C31.4419 99.5576 30.8482 99.4082 30.2544 99.2522C29.6607 99.0833 29.1121 98.8623 28.6088 98.5894C28.1183 98.3165 27.7182 97.959 27.4084 97.5171C27.1115 97.0623 26.9631 96.4709 26.9631 95.7431C26.9631 95.0672 27.1373 94.4499 27.4858 93.891C27.8472 93.3192 28.3958 92.8643 29.1315 92.5264C29.8672 92.1755 30.8094 92 31.9582 92C32.7197 92 33.4748 92.1105 34.2234 92.3314C34.972 92.5394 35.6174 92.8318 36.1595 93.2087L35.6755 94.3589C35.0946 93.969 34.4751 93.6831 33.8168 93.5011C33.1715 93.3192 32.5455 93.2282 31.9388 93.2282C31.1257 93.2282 30.4545 93.3387 29.9253 93.5596C29.3961 93.7806 29.0024 94.0795 28.7443 94.4564C28.499 94.8203 28.3764 95.2362 28.3764 95.7041C28.3764 96.237 28.5249 96.6659 28.8217 96.9908C29.1315 97.3157 29.5316 97.5691 30.0221 97.7511C30.5255 97.933 31.074 98.0955 31.6678 98.2385C32.2615 98.3814 32.8488 98.5374 33.4296 98.7064C34.0233 98.8753 34.5654 99.0963 35.0559 99.3692C35.5593 99.6291 35.9594 99.98 36.2563 100.422C36.5661 100.864 36.7209 101.442 36.7209 102.157C36.7209 102.82 36.5402 103.437 36.1788 104.009C35.8174 104.568 35.2624 105.023 34.5138 105.374C33.7781 105.712 32.8294 105.881 31.6678 105.881Z" fill="#BBFF34"/>
<path d="M42.2866 105.764V93.3647H37.5238V92.117H48.482V93.3647H43.7193V105.764H42.2866Z" fill="#BBFF34"/>
<path d="M52.0487 98.219H59.2122V99.4472H52.0487V98.219ZM52.2036 104.516H60.3545V105.764H50.7709V92.117H60.064V93.3647H52.2036V104.516Z" fill="#BBFF34"/>
<path d="M63.7222 105.764V92.117H64.9032L71.0987 102.761H70.4791L76.6165 92.117H77.7975V105.764H76.4229V94.2809H76.752L71.0987 104.029H70.421L64.7289 94.2809H65.0968V105.764H63.7222Z" fill="#BBFF34"/>
<path d="M85.9499 105.881C84.9432 105.881 83.9751 105.718 83.0458 105.393C82.1294 105.055 81.4195 104.626 80.9161 104.107L81.4776 102.995C81.9551 103.463 82.5941 103.86 83.3943 104.185C84.2075 104.496 85.0593 104.652 85.9499 104.652C86.8018 104.652 87.4923 104.548 88.0215 104.34C88.5636 104.12 88.9573 103.827 89.2025 103.463C89.4607 103.099 89.5898 102.696 89.5898 102.254C89.5898 101.722 89.4349 101.293 89.1251 100.968C88.8282 100.643 88.4346 100.389 87.9441 100.207C87.4536 100.013 86.9115 99.8436 86.3178 99.7006C85.724 99.5576 85.1303 99.4082 84.5366 99.2522C83.9429 99.0833 83.3943 98.8623 82.8909 98.5894C82.4004 98.3165 82.0003 97.959 81.6905 97.5171C81.3937 97.0623 81.2452 96.4709 81.2452 95.7431C81.2452 95.0672 81.4195 94.4499 81.768 93.891C82.1294 93.3192 82.6779 92.8643 83.4137 92.5264C84.1494 92.1755 85.0916 92 86.2403 92C87.0019 92 87.7569 92.1105 88.5056 92.3314C89.2542 92.5394 89.8995 92.8318 90.4416 93.2087L89.9576 94.3589C89.3768 93.969 88.7572 93.6831 88.099 93.5011C87.4536 93.3192 86.8276 93.2282 86.221 93.2282C85.4078 93.2282 84.7366 93.3387 84.2075 93.5596C83.6783 93.7806 83.2846 94.0795 83.0264 94.4564C82.7812 94.8203 82.6586 95.2362 82.6586 95.7041C82.6586 96.237 82.807 96.6659 83.1039 96.9908C83.4137 97.3157 83.8138 97.5691 84.3043 97.7511C84.8076 97.933 85.3562 98.0955 85.9499 98.2385C86.5437 98.3814 87.1309 98.5374 87.7118 98.7064C88.3055 98.8753 88.8476 99.0963 89.3381 99.3692C89.8415 99.6291 90.2416 99.98 90.5384 100.422C90.8482 100.864 91.0031 101.442 91.0031 102.157C91.0031 102.82 90.8224 103.437 90.461 104.009C90.0996 104.568 89.5446 105.023 88.796 105.374C88.0603 105.712 87.1116 105.881 85.9499 105.881Z" fill="#BBFF34"/>
</svg>
