<svg width="28" height="27" viewBox="0 0 28 27" fill="none" xmlns="http://www.w3.org/2000/svg">
<path d="M10.4314 20.0867H17.6264V7.09961H10.4314V20.0867V20.0867Z" fill="#FF5F00"/>
<path d="M10.8892 13.5932C10.8853 11.0616 12.0429 8.66826 14.0299 7.09961C10.6436 4.43802 5.78047 4.82549 2.85834 7.98969C-0.0637842 11.1539 -0.0637842 16.0324 2.85834 19.1966C5.78047 22.3608 10.6436 22.7483 14.0299 20.0867C12.0432 18.5179 10.8856 16.1246 10.8892 13.5932" fill="#EB001B"/>
<path d="M27.3334 13.5932C27.3507 16.7491 25.5584 19.636 22.7223 21.0204C19.8861 22.4048 16.5075 22.0419 14.03 20.0867C16.0138 18.5155 17.1706 16.1238 17.1706 13.5932C17.1706 11.0626 16.0138 8.67078 14.03 7.09961C16.5075 5.14447 19.8861 4.78157 22.7223 6.16595C25.5584 7.55033 27.3507 10.4372 27.3334 13.5932Z" fill="#F79E1B"/>
</svg>
