<svg width="110" height="101" viewBox="0 0 110 101" fill="none" xmlns="http://www.w3.org/2000/svg">
<path d="M5.61986 71.7402V26.4197H16.1083V71.7402H5.61986ZM36.2517 61.3813L35.669 49.2742L57.3581 26.4197H69.0119L49.4594 47.4614L43.6324 53.6768L36.2517 61.3813ZM26.8638 71.7402V26.4197H37.2876V71.7402H26.8638ZM57.876 71.7402L41.7549 51.9934L48.6177 44.5479L70.1126 71.7402H57.876Z" fill="#272727"/>
<path d="M88.7319 72.5172C85.1063 72.5172 81.6317 72.0424 78.3082 71.0928C74.9847 70.1001 72.3086 68.8268 70.28 67.2729L73.8409 59.3742C75.7832 60.7554 78.0708 61.8992 80.7037 62.8056C83.3798 63.6689 86.0774 64.1005 88.7967 64.1005C90.8685 64.1005 92.5302 63.9063 93.7819 63.5178C95.0768 63.0862 96.0264 62.5035 96.6306 61.7697C97.2349 61.036 97.537 60.1943 97.537 59.2447C97.537 58.0362 97.0623 57.0866 96.1127 56.396C95.1631 55.6622 93.9114 55.0795 92.3576 54.6479C90.8037 54.1731 89.0772 53.7415 87.1781 53.3531C85.3221 52.9214 83.4445 52.4035 81.5454 51.7992C79.6894 51.1949 77.9845 50.418 76.4306 49.4684C74.8768 48.5189 73.6035 47.2672 72.6108 45.7133C71.6612 44.1595 71.1864 42.174 71.1864 39.7569C71.1864 37.1672 71.877 34.8148 73.2582 32.6998C74.6826 30.5417 76.7975 28.8368 79.6031 27.5851C82.4518 26.2902 86.0127 25.6428 90.2858 25.6428C93.1345 25.6428 95.94 25.9881 98.7024 26.6787C101.465 27.3261 103.903 28.3189 106.018 29.6569L102.781 37.6204C100.666 36.4118 98.5514 35.527 96.4364 34.9659C94.3214 34.3616 92.2497 34.0595 90.221 34.0595C88.1924 34.0595 86.5306 34.2969 85.2358 34.7716C83.9409 35.2464 83.0129 35.8723 82.4518 36.6492C81.8907 37.383 81.6101 38.2462 81.6101 39.2389C81.6101 40.4043 82.0849 41.3539 83.0345 42.0877C83.9841 42.7783 85.2358 43.3394 86.7896 43.771C88.3435 44.2026 90.0484 44.6342 91.9044 45.0659C93.8035 45.4975 95.6811 45.9939 97.537 46.555C99.4362 47.1161 101.163 47.8714 102.717 48.821C104.27 49.7706 105.522 51.0223 106.472 52.5761C107.464 54.13 107.961 56.0939 107.961 58.4678C107.961 61.0144 107.249 63.3451 105.824 65.4601C104.4 67.5751 102.263 69.28 99.4146 70.5748C96.6091 71.8697 93.0482 72.5172 88.7319 72.5172Z" fill="#BBFF34"/>
<path d="M5.17969 13.1606V0.111846H6.54055V13.1606H5.17969Z" fill="#272727"/>
<path d="M14.245 13.1606L8.54406 0.111846H10.0153L15.3484 12.3963H14.5392L19.9091 0.111846H21.2884L15.5874 13.1606H14.245Z" fill="#272727"/>
<path d="M20.7019 13.1606L26.5867 0.111846H27.9292L33.814 13.1606H32.3796L26.9729 0.913412H27.5246L22.1179 13.1606H20.7019ZM23.019 9.67471L23.4236 8.55625H30.9084L31.3129 9.67471H23.019Z" fill="#272727"/>
<path d="M35.9435 13.1606V0.111846H37.0653L45.9477 11.4456H45.3592V0.111846H46.7017V13.1606H45.5799L36.7159 1.82682H37.3044V13.1606H35.9435Z" fill="#272727"/>
<path d="M56.8933 9.91704L56.8382 8.23935L64.6356 0.111846H66.1987L60.5162 6.15155L59.7438 6.9904L56.8933 9.91704ZM55.7164 13.1606V0.111846H57.0772V13.1606H55.7164ZM64.9666 13.1606L59.4128 6.6735L60.3323 5.66688L66.5849 13.1606H64.9666Z" fill="#272727"/>
<path d="M73.951 13.2724C72.9824 13.2724 72.0813 13.1109 71.2476 12.7878C70.4262 12.4522 69.709 11.9862 69.096 11.3897C68.4953 10.7807 68.0232 10.0786 67.68 9.28325C67.3489 8.47547 67.1834 7.59313 67.1834 6.63622C67.1834 5.67931 67.3489 4.80318 67.68 4.00783C68.0232 3.20005 68.4953 2.4979 69.096 1.90139C69.709 1.29245 70.4262 0.82642 71.2476 0.503309C72.0691 0.16777 72.9702 0 73.951 0C74.9195 0 75.8145 0.16777 76.6359 0.503309C77.4573 0.82642 78.1684 1.28623 78.7692 1.88275C79.3822 2.47926 79.8542 3.18141 80.1852 3.98919C80.5285 4.79697 80.7001 5.67931 80.7001 6.63622C80.7001 7.59313 80.5285 8.47547 80.1852 9.28325C79.8542 10.091 79.3822 10.7932 78.7692 11.3897C78.1684 11.9862 77.4573 12.4522 76.6359 12.7878C75.8145 13.1109 74.9195 13.2724 73.951 13.2724ZM73.951 12.0421C74.7234 12.0421 75.4344 11.9116 76.0842 11.6507C76.7463 11.3773 77.3164 10.9982 77.7945 10.5136C78.2849 10.0165 78.665 9.4448 78.9347 8.79858C79.2044 8.13993 79.3393 7.41914 79.3393 6.63622C79.3393 5.85329 79.2044 5.13872 78.9347 4.4925C78.665 3.83385 78.2849 3.26219 77.7945 2.77752C77.3164 2.28042 76.7463 1.90139 76.0842 1.64041C75.4344 1.36701 74.7234 1.23031 73.951 1.23031C73.1786 1.23031 72.4614 1.36701 71.7993 1.64041C71.1373 1.90139 70.5611 2.28042 70.0707 2.77752C69.5925 3.26219 69.2125 3.83385 68.9305 4.4925C68.6608 5.13872 68.5259 5.85329 68.5259 6.63622C68.5259 7.40672 68.6608 8.12129 68.9305 8.77994C69.2125 9.43859 69.5925 10.0165 70.0707 10.5136C70.5611 10.9982 71.1373 11.3773 71.7993 11.6507C72.4614 11.9116 73.1786 12.0421 73.951 12.0421Z" fill="#272727"/>
<path d="M83.7504 13.1606V0.111846H88.5686C89.6598 0.111846 90.5976 0.292043 91.3823 0.652438C92.1669 1.0004 92.7677 1.50993 93.1845 2.181C93.6136 2.83965 93.8282 3.64122 93.8282 4.5857C93.8282 5.50533 93.6136 6.30068 93.1845 6.97176C92.7677 7.63041 92.1669 8.13993 91.3823 8.50032C90.5976 8.84829 89.6598 9.02227 88.5686 9.02227H84.5044L85.1113 8.38848V13.1606H83.7504ZM92.5409 13.1606L89.2307 8.42576H90.7019L94.0305 13.1606H92.5409ZM85.1113 8.50032L84.5044 7.84789H88.5318C89.8191 7.84789 90.7938 7.56206 91.4558 6.9904C92.1301 6.41874 92.4673 5.61717 92.4673 4.5857C92.4673 3.5418 92.1301 2.73402 91.4558 2.16236C90.7938 1.5907 89.8191 1.30487 88.5318 1.30487H84.5044L85.1113 0.652438V8.50032Z" fill="#272727"/>
<path d="M97.0401 13.1606V0.111846H98.1619L107.044 11.4456H106.456V0.111846H107.798V13.1606H106.676L97.8125 1.82682H98.401V13.1606H97.0401Z" fill="#272727"/>
<path d="M11.0495 101C9.87556 101 8.74674 100.81 7.66308 100.432C6.59447 100.037 5.76667 99.5374 5.17969 98.9312L5.8344 97.6354C6.39128 98.181 7.1363 98.6432 8.06945 99.0221C9.01766 99.3858 10.011 99.5677 11.0495 99.5677C12.0429 99.5677 12.8481 99.4464 13.4652 99.204C14.0973 98.9463 14.5564 98.6053 14.8423 98.181C15.1434 97.7566 15.2939 97.2868 15.2939 96.7715C15.2939 96.1502 15.1133 95.65 14.752 95.2711C14.4059 94.8923 13.9468 94.5967 13.3749 94.3846C12.8029 94.1572 12.1708 93.9602 11.4785 93.7935C10.7861 93.6268 10.0938 93.4525 9.40145 93.2706C8.70911 93.0736 8.06945 92.816 7.48247 92.4977C6.91054 92.1795 6.44396 91.7627 6.08274 91.2474C5.73657 90.717 5.56348 90.0274 5.56348 89.1787C5.56348 88.3906 5.76667 87.6707 6.17304 87.0191C6.59447 86.3522 7.23413 85.8218 8.09203 85.4278C8.94993 85.0186 10.0486 84.814 11.3882 84.814C12.2762 84.814 13.1566 84.9428 14.0296 85.2004C14.9025 85.4429 15.6551 85.7839 16.2872 86.2234L15.7228 87.5647C15.0455 87.11 14.3231 86.7766 13.5555 86.5644C12.8029 86.3522 12.073 86.2461 11.3656 86.2461C10.4174 86.2461 9.63474 86.375 9.01766 86.6326C8.40057 86.8902 7.94152 87.2388 7.6405 87.6783C7.35454 88.1027 7.21155 88.5876 7.21155 89.1332C7.21155 89.7546 7.38464 90.2547 7.73081 90.6336C8.09203 91.0125 8.55861 91.308 9.13054 91.5202C9.71752 91.7324 10.3572 91.9218 11.0495 92.0885C11.7419 92.2552 12.4267 92.4371 13.104 92.6341C13.7963 92.8311 14.4284 93.0888 15.0004 93.407C15.5874 93.7101 16.0539 94.1193 16.4001 94.6346C16.7613 95.1499 16.9419 95.8243 16.9419 96.6579C16.9419 97.4308 16.7312 98.1507 16.3098 98.8175C15.8884 99.4692 15.2412 99.9996 14.3682 100.409C13.5103 100.803 12.4041 101 11.0495 101Z" fill="#272727"/>
<path d="M24.0215 100.863V94.9529L24.4053 95.9986L17.7002 84.9504H19.4837L25.3761 94.6574H24.4279L30.3203 84.9504H31.991L25.2858 95.9986L25.6696 94.9529V100.863H24.0215Z" fill="#272727"/>
<path d="M38.6085 101C37.4345 101 36.3057 100.81 35.222 100.432C34.1534 100.037 33.3256 99.5374 32.7386 98.9312L33.3933 97.6354C33.9502 98.181 34.6952 98.6432 35.6284 99.0221C36.5766 99.3858 37.57 99.5677 38.6085 99.5677C39.6018 99.5677 40.4071 99.4464 41.0241 99.204C41.6563 98.9463 42.1153 98.6053 42.4013 98.181C42.7023 97.7566 42.8528 97.2868 42.8528 96.7715C42.8528 96.1502 42.6722 95.65 42.311 95.2711C41.9648 94.8923 41.5058 94.5967 40.9338 94.3846C40.3619 94.1572 39.7298 93.9602 39.0374 93.7935C38.3451 93.6268 37.6527 93.4525 36.9604 93.2706C36.2681 93.0736 35.6284 92.816 35.0414 92.4977C34.4695 92.1795 34.0029 91.7627 33.6417 91.2474C33.2955 90.717 33.1224 90.0274 33.1224 89.1787C33.1224 88.3906 33.3256 87.6707 33.732 87.0191C34.1534 86.3522 34.7931 85.8218 35.651 85.4278C36.5089 85.0186 37.6076 84.814 38.9471 84.814C39.8351 84.814 40.7156 84.9428 41.5885 85.2004C42.4615 85.4429 43.214 85.7839 43.8462 86.2234L43.2818 87.5647C42.6045 87.11 41.882 86.7766 41.1144 86.5644C40.3619 86.3522 39.6319 86.2461 38.9245 86.2461C37.9763 86.2461 37.1937 86.375 36.5766 86.6326C35.9595 86.8902 35.5005 87.2388 35.1995 87.6783C34.9135 88.1027 34.7705 88.5876 34.7705 89.1332C34.7705 89.7546 34.9436 90.2547 35.2898 90.6336C35.651 91.0125 36.1176 91.308 36.6895 91.5202C37.2765 91.7324 37.9161 91.9218 38.6085 92.0885C39.3008 92.2552 39.9856 92.4371 40.6629 92.6341C41.3553 92.8311 41.9874 93.0888 42.5593 93.407C43.1463 93.7101 43.6129 94.1193 43.9591 94.6346C44.3203 95.1499 44.5009 95.8243 44.5009 96.6579C44.5009 97.4308 44.2902 98.1507 43.8687 98.8175C43.4473 99.4692 42.8001 99.9996 41.9272 100.409C41.0693 100.803 39.9631 101 38.6085 101Z" fill="#272727"/>
<path d="M50.9909 100.863V86.4053H45.4371V84.9504H58.2153V86.4053H52.6615V100.863H50.9909Z" fill="#272727"/>
<path d="M62.3742 92.0658H70.7275V93.498H62.3742V92.0658ZM62.5549 99.4086H72.0595V100.863H60.8842V84.9504H71.7208V86.4053H62.5549V99.4086Z" fill="#272727"/>
<path d="M75.9865 100.863V84.9504H77.3637L84.5881 97.3626H83.8656L91.0223 84.9504H92.3995V100.863H90.7966V87.4737H91.1804L84.5881 98.8402H83.7979L77.1605 87.4737H77.5894V100.863H75.9865Z" fill="#272727"/>
<path d="M101.906 101C100.732 101 99.6031 100.81 98.5194 100.432C97.4508 100.037 96.623 99.5374 96.036 98.9312L96.6907 97.6354C97.2476 98.181 97.9926 98.6432 98.9258 99.0221C99.874 99.3858 100.867 99.5677 101.906 99.5677C102.899 99.5677 103.704 99.4464 104.322 99.204C104.954 98.9463 105.413 98.6053 105.699 98.181C106 97.7566 106.15 97.2868 106.15 96.7715C106.15 96.1502 105.97 95.65 105.608 95.2711C105.262 94.8923 104.803 94.5967 104.231 94.3846C103.659 94.1572 103.027 93.9602 102.335 93.7935C101.642 93.6268 100.95 93.4525 100.258 93.2706C99.5655 93.0736 98.9258 92.816 98.3388 92.4977C97.7669 92.1795 97.3003 91.7627 96.9391 91.2474C96.5929 90.717 96.4198 90.0274 96.4198 89.1787C96.4198 88.3906 96.623 87.6707 97.0294 87.0191C97.4508 86.3522 98.0905 85.8218 98.9484 85.4278C99.8063 85.0186 100.905 84.814 102.245 84.814C103.133 84.814 104.013 84.9428 104.886 85.2004C105.759 85.4429 106.511 85.7839 107.144 86.2234L106.579 87.5647C105.902 87.11 105.179 86.7766 104.412 86.5644C103.659 86.3522 102.929 86.2461 102.222 86.2461C101.274 86.2461 100.491 86.375 99.874 86.6326C99.2569 86.8902 98.7979 87.2388 98.4968 87.6783C98.2109 88.1027 98.0679 88.5876 98.0679 89.1332C98.0679 89.7546 98.241 90.2547 98.5872 90.6336C98.9484 91.0125 99.4149 91.308 99.9869 91.5202C100.574 91.7324 101.214 91.9218 101.906 92.0885C102.598 92.2552 103.283 92.4371 103.96 92.6341C104.653 92.8311 105.285 93.0888 105.857 93.407C106.444 93.7101 106.91 94.1193 107.256 94.6346C107.618 95.1499 107.798 95.8243 107.798 96.6579C107.798 97.4308 107.588 98.1507 107.166 98.8175C106.745 99.4692 106.098 99.9996 105.225 100.409C104.367 100.803 103.26 101 101.906 101Z" fill="#272727"/>
</svg>
