<svg width="21" height="17" viewBox="0 0 21 17" fill="none" xmlns="http://www.w3.org/2000/svg">
<path d="M18.6826 4.34909V2.33347H2.65137V4.34909H18.6826ZM18.6826 14.3335V8.33347H2.65137V14.3335H18.6826ZM18.6826 0.317842C19.2451 0.317842 19.7139 0.520967 20.0889 0.927217C20.4639 1.30222 20.6514 1.77097 20.6514 2.33347V14.3335C20.6514 14.896 20.4639 15.3803 20.0889 15.7866C19.7139 16.1616 19.2451 16.3491 18.6826 16.3491H2.65137C2.08887 16.3491 1.62012 16.1616 1.24512 15.7866C0.870118 15.3803 0.682618 14.896 0.682618 14.3335V2.33347C0.682618 1.77097 0.870118 1.30222 1.24512 0.927217C1.62012 0.520967 2.08887 0.317842 2.65137 0.317842H18.6826Z" fill="black"/>
</svg>
