<svg width="19" height="21" viewBox="0 0 19 21" fill="none" xmlns="http://www.w3.org/2000/svg">
<path d="M14.6826 8.33338V6.31775H4.65137V8.33338H14.6826ZM14.6826 12.3177V10.349H4.65137V12.3177H14.6826ZM11.6826 16.349V14.3334H4.65137V16.349H11.6826ZM10.3701 2.61463C10.1826 2.42713 9.94824 2.33338 9.66699 2.33338C9.38574 2.33338 9.15137 2.42713 8.96387 2.61463C8.77637 2.80213 8.68262 3.0365 8.68262 3.31775C8.68262 3.599 8.77637 3.849 8.96387 4.06775C9.15137 4.25525 9.38574 4.349 9.66699 4.349C9.94824 4.349 10.1826 4.25525 10.3701 4.06775C10.5576 3.849 10.6514 3.599 10.6514 3.31775C10.6514 3.0365 10.5576 2.80213 10.3701 2.61463ZM16.6514 2.33338C17.1826 2.33338 17.6514 2.5365 18.0576 2.94275C18.4639 3.349 18.667 3.81775 18.667 4.349V18.3177C18.667 18.849 18.4639 19.3177 18.0576 19.724C17.6514 20.1302 17.1826 20.3334 16.6514 20.3334H2.68262C2.15137 20.3334 1.68262 20.1302 1.27637 19.724C0.870118 19.3177 0.666993 18.849 0.666993 18.3177V4.349C0.666993 3.81775 0.870118 3.349 1.27637 2.94275C1.68262 2.5365 2.15137 2.33338 2.68262 2.33338H6.85449C7.07324 1.73963 7.43262 1.25525 7.93262 0.880251C8.43262 0.505251 9.01074 0.317751 9.66699 0.317751C10.3232 0.317751 10.9014 0.505251 11.4014 0.880251C11.9014 1.25525 12.2607 1.73963 12.4795 2.33338H16.6514Z" fill="black"/>
</svg>
