<svg width="34" height="34" viewBox="0 0 34 34" fill="none" xmlns="http://www.w3.org/2000/svg">
<path d="M28.1138 7.29372L28.0742 7.26895L23.0623 4.7998L17.6529 12.0124L20.1416 15.331C20.0672 16.5825 19.5364 17.7633 18.6499 18.6498C17.7634 19.5363 16.5826 20.067 15.3311 20.1415L12.0126 17.6527L4.80005 23.062L7.24864 28.032L7.26925 28.0739L7.29408 28.1135C7.42475 28.3241 7.60713 28.4977 7.82386 28.6178C8.0406 28.7379 8.28447 28.8006 8.53226 28.7998H9.82549C12.3173 28.7998 14.7847 28.309 17.0868 27.3554C19.3889 26.4019 21.4806 25.0042 23.2425 23.2423C25.0045 21.4803 26.4021 19.3886 27.3557 17.0865C28.3093 14.7844 28.8001 12.317 28.8 9.82519V8.5319C28.8008 8.28411 28.7382 8.04024 28.6181 7.82351C28.498 7.60677 28.3244 7.42439 28.1138 7.29372V7.29372ZM26.9479 9.82519C26.9479 19.2666 19.2668 26.9477 9.82549 26.9477H8.77906L7.14076 23.6218L12.0129 19.9677L14.7255 22.0021H15.0342C16.8817 22 18.653 21.2652 19.9594 19.9587C21.2658 18.6523 22.0006 16.8811 22.0027 15.0335V14.7249L19.9684 12.0124L23.6221 7.14046L26.9479 8.77904V9.82519Z" fill="white" fill-opacity="0.8"/>
</svg>
