<svg width="155" height="106" viewBox="0 0 155 106" fill="none" xmlns="http://www.w3.org/2000/svg">
<path d="M2 32C2 15.4315 15.4315 2 32 2H123C139.569 2 153 15.4315 153 32V74C153 90.5685 139.569 104 123 104H32C15.4315 104 2 90.5685 2 74V32Z" fill="white" fill-opacity="0.2"/>
<path d="M2 32C2 15.4315 15.4315 2 32 2H123C139.569 2 153 15.4315 153 32V74C153 90.5685 139.569 104 123 104H32C15.4315 104 2 90.5685 2 74V32Z" stroke="white" stroke-width="3"/>
<path d="M65 65.4881V40.672C65 37.6511 68.2203 35.7205 70.8849 37.144L94.7214 49.8785C97.5761 51.4037 97.5319 55.5112 94.6449 56.9745L70.8084 69.056C68.1476 70.4047 65 68.4712 65 65.4881Z" stroke="white" stroke-width="3"/>
</svg>
