<svg width="20" height="20" viewBox="0 0 20 20" fill="none" xmlns="http://www.w3.org/2000/svg">
<path d="M4.19792 11.1145C5.17014 12.0868 6.35069 12.5729 7.73958 12.5729C9.12847 12.5729 10.309 12.0868 11.2813 11.1145C12.2535 10.1423 12.7396 8.96176 12.7396 7.57287C12.7396 6.18398 12.2535 5.00342 11.2813 4.0312C10.309 3.05898 9.12847 2.57287 7.73958 2.57287C6.35069 2.57287 5.17014 3.05898 4.19792 4.0312C3.22569 5.00342 2.73958 6.18398 2.73958 7.57287C2.73958 8.96176 3.22569 10.1423 4.19792 11.1145ZM14.4063 12.5729L19.9271 18.0937L18.2604 19.7604L12.7396 14.2395V13.3541L12.4271 13.0416C11.1076 14.1875 9.54514 14.7604 7.73958 14.7604C5.72569 14.7604 4.00694 14.0659 2.58333 12.677C1.19444 11.2881 0.5 9.58676 0.5 7.57287C0.5 5.55898 1.19444 3.85759 2.58333 2.4687C4.00694 1.04509 5.72569 0.333284 7.73958 0.333284C9.75347 0.333284 11.4549 1.04509 12.8438 2.4687C14.2326 3.85759 14.9271 5.55898 14.9271 7.57287C14.9271 8.30203 14.7535 9.13537 14.4063 10.0729C14.059 10.9756 13.6597 11.7048 13.2083 12.2604L13.5208 12.5729H14.4063Z" fill="black"/>
</svg>
