<svg width="24" height="24" viewBox="0 0 24 24" fill="none" xmlns="http://www.w3.org/2000/svg">
<g clip-path="url(#clip0_1084_1907)">
<path d="M4.50005 6.84492V0.75H3.00005V6.84492C2.35605 7.01126 1.78558 7.38688 1.3783 7.91273C0.971011 8.43859 0.75 9.08487 0.75 9.75C0.75 10.4151 0.971011 11.0614 1.3783 11.5873C1.78558 12.1131 2.35605 12.4887 3.00005 12.6551V23.25H4.50005V12.6551C5.14405 12.4887 5.71452 12.1131 6.12181 11.5873C6.5291 11.0614 6.75011 10.4151 6.75011 9.75C6.75011 9.08487 6.5291 8.43859 6.12181 7.91273C5.71452 7.38688 5.14405 7.01126 4.50005 6.84492ZM3.75005 11.25C3.45338 11.25 3.16337 11.162 2.9167 10.9972C2.67002 10.8324 2.47777 10.5981 2.36423 10.324C2.2507 10.0499 2.221 9.74834 2.27888 9.45737C2.33675 9.16639 2.47961 8.89912 2.68939 8.68934C2.89917 8.47956 3.16645 8.3367 3.45742 8.27882C3.74839 8.22094 4.04999 8.25065 4.32408 8.36418C4.59817 8.47771 4.83244 8.66997 4.99726 8.91665C5.16208 9.16332 5.25005 9.45333 5.25005 9.75C5.24961 10.1477 5.09143 10.529 4.81022 10.8102C4.52901 11.0914 4.14774 11.2496 3.75005 11.25Z" fill="#BBFF34"/>
<path d="M12.7501 13.5949V0.75H11.2501V13.5949C10.6061 13.7613 10.0356 14.1369 9.6283 14.6627C9.22101 15.1886 9 15.8349 9 16.5C9 17.1651 9.22101 17.8114 9.6283 18.3373C10.0356 18.8631 10.6061 19.2387 11.2501 19.4051V23.25H12.7501V19.4051C13.3941 19.2387 13.9645 18.8631 14.3718 18.3373C14.7791 17.8114 15.0001 17.1651 15.0001 16.5C15.0001 15.8349 14.7791 15.1886 14.3718 14.6627C13.9645 14.1369 13.3941 13.7613 12.7501 13.5949ZM12.0001 18C11.7034 18 11.4134 17.912 11.1667 17.7472C10.92 17.5824 10.7278 17.3481 10.6142 17.074C10.5007 16.7999 10.471 16.4983 10.5289 16.2074C10.5868 15.9164 10.7296 15.6491 10.9394 15.4393C11.1492 15.2296 11.4164 15.0867 11.7074 15.0288C11.9984 14.9709 12.3 15.0006 12.5741 15.1142C12.8482 15.2277 13.0824 15.42 13.2473 15.6666C13.4121 15.9133 13.5001 16.2033 13.5001 16.5C13.4996 16.8977 13.3414 17.279 13.0602 17.5602C12.779 17.8414 12.3977 17.9996 12.0001 18Z" fill="#BBFF34"/>
<path d="M21.0001 3.84492V0.75H19.5001V3.84492C18.8561 4.01126 18.2856 4.38688 17.8783 4.91273C17.471 5.43858 17.25 6.08487 17.25 6.75C17.25 7.41513 17.471 8.06141 17.8783 8.58727C18.2856 9.11312 18.8561 9.48874 19.5001 9.65508V23.25H21.0001V9.65508C21.6441 9.48874 22.2145 9.11312 22.6218 8.58727C23.0291 8.06141 23.2501 7.41513 23.2501 6.75C23.2501 6.08487 23.0291 5.43858 22.6218 4.91273C22.2145 4.38688 21.6441 4.01126 21.0001 3.84492ZM20.2501 8.25C19.9534 8.25 19.6634 8.16203 19.4167 7.9972C19.17 7.83238 18.9778 7.59811 18.8642 7.32403C18.7507 7.04994 18.721 6.74834 18.7789 6.45736C18.8368 6.16639 18.9796 5.89912 19.1894 5.68934C19.3992 5.47956 19.6664 5.3367 19.9574 5.27882C20.2484 5.22094 20.55 5.25065 20.8241 5.36418C21.0982 5.47771 21.3324 5.66997 21.4973 5.91665C21.6621 6.16332 21.7501 6.45333 21.7501 6.75C21.7496 7.14769 21.5914 7.52896 21.3102 7.81017C21.029 8.09137 20.6477 8.24955 20.2501 8.25Z" fill="#BBFF34"/>
</g>
<defs>
<clipPath id="clip0_1084_1907">
<rect width="24" height="24" fill="white"/>
</clipPath>
</defs>
</svg>
