<svg width="28" height="28" viewBox="0 0 28 28" fill="none" xmlns="http://www.w3.org/2000/svg">
<circle cx="14.0001" cy="14.0002" r="13.3333" fill="#005B9C"/>
<path fill-rule="evenodd" clip-rule="evenodd" d="M16.5514 9.00015L13.5618 17.0243L13.2084 15.2963L13.2087 15.2969L12.1534 10.0509C12.1534 10.0509 12.0261 9.00015 10.666 9.00015H5.72441L5.66675 9.19738C5.66675 9.19738 7.1783 9.50197 8.94629 10.5315L11.6704 20.6668H14.9374L19.926 9.00015H16.5514" fill="white"/>
<path fill-rule="evenodd" clip-rule="evenodd" d="M13.4445 15.4816L12.3561 10.0817C12.3561 10.0817 12.2249 9.00015 10.8223 9.00015H5.72622L5.66675 9.20317C5.66675 9.20317 8.11626 9.69433 10.4661 11.5331C12.712 13.2908 13.4445 15.4816 13.4445 15.4816" fill="#EE9F3F"/>
</svg>
